<?xml version="1.0" standalone="no"?>
<!DOCTYPE svg PUBLIC "-//W3C//DTD SVG 20010904//EN"
 "http://www.w3.org/TR/2001/REC-SVG-20010904/DTD/svg10.dtd">
<svg version="1.0" xmlns="http://www.w3.org/2000/svg"
 width="2363.000000pt" height="2363.000000pt" viewBox="0 0 2363.000000 2363.000000"
 preserveAspectRatio="xMidYMid meet">
<metadata>
Created by potrace 1.11, written by Peter Selinger 2001-2013
</metadata>
<g transform="translate(0.000000,2363.000000) scale(0.100000,-0.100000)"
fill="#000000" stroke="none">
<path d="M9331 21537 c-6 -6 -11 -17 -11 -24 0 -7 -3 -13 -7 -14 -5 0 -22 -2
-39 -4 -25 -4 -35 0 -48 20 -10 15 -23 23 -36 20 -33 -6 -40 -15 -40 -45 0
-20 -8 -35 -28 -49 -26 -18 -30 -19 -45 -4 -14 15 -18 15 -41 0 -25 -17 -29
-53 -6 -67 7 -4 1 -27 -16 -64 -49 -107 -22 -230 71 -323 24 -24 48 -43 54
-43 6 0 11 -5 11 -10 0 -6 -6 -10 -12 -8 -24 4 -108 -13 -108 -23 0 -5 -16 -9
-35 -9 -19 0 -35 -4 -35 -10 0 -5 -12 -10 -27 -10 -45 0 -173 -41 -167 -54 3
-6 -2 -2 -10 8 -9 11 -16 25 -16 31 0 7 -9 20 -20 30 -17 15 -24 16 -46 6 -24
-11 -26 -15 -20 -55 7 -42 6 -44 -25 -55 -45 -15 -47 -15 -54 19 -8 36 -32 51
-62 39 -27 -10 -31 -29 -18 -82 5 -20 3 -27 -7 -27 -7 0 -31 -9 -51 -19 l-38
-19 7 33 c9 52 -12 102 -58 136 -49 35 -91 37 -173 9 l-58 -20 -15 23 c-28 41
-96 99 -137 117 -91 39 -208 30 -293 -22 -80 -49 -148 -180 -140 -270 l3 -40
-65 -24 c-115 -43 -164 -127 -123 -211 48 -98 184 -113 252 -27 12 15 21 37
21 50 0 32 14 37 43 14 13 -11 37 -24 52 -30 31 -12 29 -18 -5 -25 -12 -2 -89
-37 -171 -77 -143 -70 -163 -86 -141 -114 4 -5 -1 -1 -10 9 -10 11 -18 16 -18
12 0 -16 -67 81 -85 122 -19 44 -40 58 -69 47 -33 -13 -17 -89 36 -166 26 -37
23 -52 -14 -71 -38 -20 -100 -56 -125 -75 -59 -41 -126 -82 -136 -82 -7 0 -20
27 -31 60 -21 70 -69 150 -90 150 -21 0 -39 -28 -33 -52 3 -13 17 -54 31 -91
28 -74 33 -120 14 -137 -15 -13 -209 -140 -214 -140 -5 0 -337 -231 -399 -279
-33 -25 -113 -88 -178 -140 -65 -51 -119 -92 -121 -90 -1 2 -24 37 -50 77 -57
87 -104 122 -162 122 -40 0 -78 -20 -280 -146 -79 -49 -128 -114 -123 -162 5
-50 -1 -58 -48 -71 -27 -7 -64 -15 -83 -18 -19 -2 -46 -5 -60 -7 -37 -5 -137
12 -190 31 -80 30 -122 61 -213 161 -40 44 -66 52 -87 27 -20 -24 -3 -64 56
-126 136 -142 331 -202 531 -164 39 8 85 21 102 29 16 9 32 16 35 16 5 0 66
-88 66 -96 0 -3 11 -20 25 -39 29 -37 40 -75 22 -75 -6 0 -20 -9 -32 -20 -121
-119 -320 -317 -359 -358 -68 -71 -118 -94 -182 -85 -60 10 -177 9 -224 -1
-74 -15 -150 -39 -150 -47 0 -5 -5 -9 -12 -9 -16 0 -72 -62 -103 -116 -28 -47
-35 -114 -21 -184 13 -64 47 -160 57 -160 5 0 9 -7 9 -15 0 -9 9 -33 20 -55
12 -24 20 -59 20 -90 0 -43 -6 -59 -38 -103 -21 -29 -58 -83 -82 -122 -24 -38
-47 -72 -51 -75 -8 -6 -114 -170 -227 -350 -105 -166 -193 -318 -251 -430 -24
-47 -47 -87 -51 -90 -3 -3 -16 -25 -27 -50 -12 -25 -48 -101 -81 -170 -32 -69
-83 -179 -111 -245 -29 -66 -61 -139 -72 -162 -10 -24 -19 -45 -19 -48 0 -4
-9 -27 -21 -52 -44 -97 -224 -574 -245 -649 -13 -48 -80 -309 -99 -388 -2 -10
-31 -113 -64 -230 -78 -279 -94 -356 -116 -571 -3 -27 -12 -96 -21 -152 -9
-56 -13 -110 -10 -120 4 -10 6 -19 4 -19 -2 -1 6 -11 16 -23 11 -12 16 -24 13
-27 -9 -9 -37 22 -37 40 0 9 -4 16 -10 16 -5 0 -10 6 -10 14 0 7 -33 45 -72
85 -96 95 -99 97 -128 106 -14 4 -33 16 -43 26 -10 11 -22 17 -28 14 -5 -4 -9
-1 -9 4 0 6 -8 11 -18 11 -10 0 -22 4 -27 9 -6 5 -26 11 -45 14 -19 3 -43 8
-52 12 -31 12 -202 12 -243 -1 -118 -38 -197 -72 -190 -84 2 -3 -5 -7 -16 -7
-27 -2 -51 -22 -42 -36 3 -5 1 -7 -4 -4 -6 4 -16 0 -23 -8 -7 -8 -16 -12 -21
-9 -5 3 -9 -2 -9 -10 0 -9 -7 -16 -17 -16 -9 0 -13 -3 -10 -7 4 -3 -5 -15 -20
-25 -16 -10 -24 -18 -20 -18 5 0 2 -7 -7 -15 -8 -8 -20 -15 -26 -15 -6 0 -9
-4 -5 -9 3 -5 -1 -16 -9 -24 -8 -8 -12 -18 -8 -22 4 -4 1 -5 -7 -3 -8 2 -24
-16 -38 -42 -13 -25 -30 -50 -38 -56 -8 -6 -15 -18 -15 -26 0 -9 -6 -21 -13
-27 -8 -6 -24 -35 -37 -66 -13 -30 -26 -55 -29 -55 -4 0 -8 -12 -9 -27 -1 -14
-8 -34 -15 -42 -15 -19 -40 -87 -41 -116 -1 -11 -5 -26 -10 -33 -4 -7 -10 -37
-13 -68 -4 -39 -12 -59 -26 -69 -11 -8 -24 -12 -29 -9 -4 3 -8 -1 -8 -8 0 -8
-3 -9 -8 -3 -14 20 -60 16 -116 -10 -31 -14 -56 -32 -56 -40 0 -8 -6 -15 -14
-15 -8 0 -21 -23 -31 -52 -14 -43 -18 -105 -22 -335 -3 -156 -1 -283 4 -283 5
0 10 -46 11 -101 1 -56 5 -106 8 -111 3 -5 8 -39 10 -76 3 -37 9 -80 15 -96 5
-16 9 -44 9 -62 0 -18 4 -35 8 -38 4 -2 9 -22 10 -42 2 -21 6 -41 10 -44 4 -3
9 -18 10 -35 2 -16 8 -34 13 -40 5 -5 9 -19 9 -31 0 -13 4 -26 10 -29 5 -3 10
-15 10 -26 0 -20 24 -81 60 -152 11 -22 20 -45 20 -52 0 -7 6 -15 14 -18 8 -3
17 -19 21 -35 3 -17 15 -38 26 -48 10 -9 19 -23 19 -30 0 -7 18 -29 40 -50 22
-21 40 -44 40 -52 0 -7 4 -11 8 -8 5 3 31 -17 58 -44 27 -27 57 -50 67 -50 9
0 17 -4 17 -8 0 -7 42 -33 60 -37 3 0 21 -8 40 -18 19 -9 58 -21 85 -27 28 -6
64 -14 80 -18 51 -12 265 -9 273 5 4 6 33 13 65 14 32 1 60 6 63 11 3 4 13 8
22 8 9 0 49 16 87 35 39 19 76 35 83 35 6 0 12 6 12 14 0 11 40 35 67 39 4 1
33 27 63 59 30 32 59 58 65 58 10 0 27 26 41 63 3 9 11 17 18 17 11 1 56 64
56 79 0 5 7 14 15 21 8 7 12 17 8 23 -3 5 -2 7 3 4 6 -3 16 9 23 26 7 18 20
45 27 61 8 16 14 42 14 58 0 18 5 28 15 28 15 0 35 38 38 72 1 9 5 14 9 12 4
-3 8 1 9 8 4 53 8 70 22 101 9 19 19 51 23 72 3 21 9 48 13 59 4 12 9 43 10
70 2 27 9 55 17 63 8 8 15 35 15 61 1 26 4 65 7 87 8 62 7 519 -2 625 -4 52
-11 106 -16 120 -12 35 -21 78 -26 125 -3 22 -7 47 -11 55 -3 8 -8 29 -10 45
-3 17 -9 34 -14 39 -5 6 -9 25 -9 42 0 18 -4 36 -10 39 -5 3 -10 17 -10 30 0
13 -4 27 -10 30 -5 3 -10 17 -10 31 0 13 -4 24 -10 24 -5 0 -10 9 -10 19 0 11
-4 23 -10 26 -5 3 -10 16 -10 29 0 13 -8 31 -19 40 -10 9 -21 30 -24 45 -3 16
-13 36 -22 44 -23 24 -18 37 15 37 24 0 30 4 31 23 0 12 2 29 4 37 3 14 8 49
20 140 37 267 121 737 149 831 18 63 48 166 66 229 18 63 48 158 66 210 18 52
42 127 53 165 63 227 151 482 202 593 16 34 29 64 29 66 0 3 18 43 40 90 22
47 40 91 40 100 0 8 4 16 9 18 5 2 27 37 49 78 100 192 161 305 225 420 39 69
77 139 85 155 8 17 23 41 32 55 10 14 29 45 43 70 13 25 58 106 100 181 98
177 101 183 107 189 20 20 150 202 150 210 0 5 4 10 9 10 4 0 29 32 55 70 25
39 52 70 59 71 6 0 20 2 30 4 10 2 42 -7 70 -21 120 -55 215 -22 355 125 76
79 112 158 112 242 0 72 -26 171 -67 255 -23 48 -24 53 -9 80 8 16 32 48 53
71 21 23 58 65 82 93 51 59 165 174 240 242 28 25 51 50 50 55 -3 20 2 25 16
13 10 -8 15 -31 15 -69 1 -105 25 -201 77 -306 41 -84 54 -101 78 -109 l30 -8
-86 -87 c-48 -47 -107 -104 -131 -126 -25 -22 -62 -65 -84 -95 -42 -60 -153
-202 -199 -254 -49 -56 -116 -137 -136 -166 -13 -19 -32 -43 -42 -55 -11 -11
-33 -40 -50 -65 -17 -25 -33 -47 -37 -50 -5 -5 -112 -155 -197 -278 -24 -34
-70 -115 -104 -179 -33 -64 -71 -133 -84 -153 -13 -20 -48 -86 -79 -146 -31
-60 -64 -122 -74 -139 -91 -157 -213 -393 -266 -515 -21 -47 -65 -146 -98
-220 -124 -277 -177 -415 -274 -706 -96 -292 -162 -539 -234 -889 -28 -137
-60 -284 -70 -325 -10 -41 -30 -151 -45 -245 -15 -93 -33 -183 -40 -200 -7
-16 -21 -62 -31 -102 -16 -63 -17 -81 -6 -143 7 -39 12 -124 12 -190 0 -65 3
-121 8 -123 4 -3 28 0 53 6 l46 11 41 215 c23 119 44 241 47 271 9 86 26 193
35 215 15 35 64 219 85 315 11 49 89 319 114 393 16 48 27 87 23 87 -4 0 -2 4
3 8 10 7 107 294 121 357 4 17 10 35 14 40 4 6 10 24 14 40 19 79 98 250 351
756 73 147 138 284 145 305 16 47 33 74 74 117 45 47 66 75 79 105 7 15 20 36
29 46 10 11 18 24 18 28 0 5 9 21 19 36 10 15 56 83 101 152 46 69 87 127 91
128 5 2 9 8 9 14 0 6 10 20 23 32 12 11 58 68 102 126 44 58 82 107 85 110 3
3 27 34 55 70 97 128 319 405 327 408 4 2 8 7 8 12 0 5 12 21 28 37 46 49 112
124 112 129 0 8 369 373 448 443 40 36 72 70 72 77 0 25 25 3 53 -45 15 -27
44 -73 64 -103 20 -29 36 -61 35 -71 -1 -16 -44 -78 -80 -116 -7 -7 -12 -25
-10 -40 4 -35 49 -42 75 -10 10 12 39 46 65 77 62 72 65 85 34 132 -14 22 -26
44 -26 49 0 5 -7 14 -15 21 -9 7 -23 29 -32 49 -9 20 -20 38 -23 41 -8 6 -50
76 -50 82 0 8 64 73 72 73 14 0 98 87 92 96 -3 5 -1 9 5 9 5 0 25 -24 44 -52
107 -167 126 -196 141 -225 27 -53 45 -57 139 -33 45 12 91 24 101 26 26 5 37
24 29 49 -11 38 -28 42 -99 20 -77 -23 -98 -20 -117 18 -10 17 -46 78 -82 135
-36 57 -65 107 -65 110 1 4 64 57 142 117 78 61 153 120 167 133 l25 23 16
-30 c8 -17 40 -69 70 -117 30 -47 60 -93 65 -102 6 -9 18 -29 28 -44 23 -34
18 -51 -39 -112 -34 -36 -44 -55 -42 -75 2 -21 9 -27 33 -29 25 -2 36 5 66 40
20 24 44 58 53 76 9 17 21 32 26 32 17 0 11 44 -10 70 -11 14 -20 31 -20 38 0
7 -8 25 -17 40 -39 63 -89 141 -125 194 -21 32 -38 63 -38 70 0 6 -10 23 -22
37 l-23 26 26 -22 c14 -13 31 -23 39 -23 13 0 101 62 133 95 10 9 17 13 17 8
0 -4 7 1 15 11 14 19 15 19 21 0 4 -10 19 -37 34 -59 15 -22 39 -59 53 -82 15
-24 38 -60 51 -80 13 -21 38 -62 56 -90 18 -29 41 -55 50 -58 9 -3 61 5 116
18 94 23 99 26 102 52 6 46 -27 52 -136 23 -46 -12 -54 -8 -76 31 -22 40 -151
245 -161 255 -16 17 -37 68 -25 61 6 -4 63 28 127 71 112 74 321 204 328 204
2 0 32 17 67 39 57 35 230 129 285 155 25 12 30 32 11 39 -7 3 6 3 30 2 24 -2
45 -5 46 -7 2 -1 40 -115 86 -252 l83 -249 -13 -94 c-10 -74 -10 -96 0 -108
16 -19 54 -19 70 0 7 8 10 15 7 15 -3 0 -1 15 4 33 5 17 12 66 15 107 6 74 5
78 -80 326 -47 138 -86 256 -86 262 0 6 10 14 22 18 29 9 47 33 43 56 -3 16
-2 16 18 3 33 -21 51 -5 43 39 -6 30 -11 36 -32 36 -13 0 -27 -7 -30 -15 -8
-19 -24 -9 -24 15 0 22 5 25 46 34 29 7 31 5 47 -48 21 -65 32 -71 95 -54 9 2
41 -80 103 -262 88 -262 89 -265 142 -319 69 -72 88 -89 110 -97 20 -6 57 21
57 43 0 7 -28 42 -61 76 -34 34 -67 71 -74 82 -7 11 -41 106 -75 210 -35 105
-69 204 -76 220 -29 68 -28 81 5 95 35 14 48 48 32 78 -6 12 -11 27 -11 34 0
7 6 2 13 -12 15 -29 31 -28 94 0 23 11 106 45 185 76 79 31 157 62 173 70 17
7 82 32 145 56 63 23 117 45 120 48 3 3 28 11 55 17 28 6 59 14 70 17 16 5 23
-1 35 -26 12 -25 21 -33 43 -33 15 -1 27 2 27 5 0 4 6 7 14 7 10 0 42 -82 100
-256 l85 -256 -11 -103 c-6 -57 -8 -105 -5 -109 14 -13 57 -10 70 5 8 10 17
42 20 72 3 30 9 76 12 101 7 41 -2 74 -79 300 -47 140 -86 260 -86 266 0 7 12
18 28 25 22 11 27 20 27 48 0 32 3 35 43 46 37 11 42 11 42 -3 0 -26 30 -41
66 -33 39 9 26 37 133 -283 84 -249 92 -263 178 -341 59 -53 64 -55 91 -45 42
16 25 60 -54 134 l-53 50 -86 255 c-84 251 -92 281 -77 279 22 -3 52 16 52 33
0 11 -56 187 -125 391 -69 204 -125 376 -125 383 0 7 17 21 37 31 58 27 151
127 184 197 16 33 29 67 29 74 0 6 7 12 15 12 8 0 15 4 15 9 0 11 20 18 75 27
22 3 42 7 45 9 3 2 26 6 50 10 25 3 68 10 95 15 50 10 100 15 245 26 41 3 91
7 110 9 19 2 105 6 190 10 85 3 216 9 290 13 168 9 474 8 685 -2 88 -4 197 -9
242 -11 70 -3 189 -11 298 -20 17 -1 62 -6 100 -10 39 -4 86 -9 106 -10 20 -1
40 -4 45 -7 5 -3 38 -9 74 -12 36 -4 83 -11 105 -16 61 -14 97 -20 133 -26 32
-4 339 -76 397 -92 29 -8 30 -9 8 -20 -29 -16 -65 -15 -164 4 -65 12 -175 17
-479 21 -656 8 -879 8 -1010 0 -69 -4 -177 -10 -240 -12 -153 -7 -303 -21
-410 -39 -74 -13 -113 -19 -195 -31 -22 -3 -52 -8 -67 -11 -15 -3 -40 -7 -57
-9 -17 -2 -72 -11 -123 -19 -51 -8 -109 -17 -128 -20 -19 -3 -82 -15 -140 -26
-58 -12 -127 -26 -155 -31 -27 -5 -106 -23 -175 -40 -68 -17 -133 -33 -143
-35 -59 -11 -71 -30 -44 -66 12 -15 18 -15 67 -2 30 8 64 16 75 18 11 2 40 9
65 15 67 17 113 27 160 36 14 3 36 7 50 10 14 3 36 8 50 10 14 3 57 12 95 20
39 8 88 17 110 19 22 3 51 8 65 11 14 3 45 8 70 11 25 3 59 8 75 11 36 6 96
14 220 28 33 3 78 9 100 11 22 3 65 7 95 9 30 3 71 7 90 9 19 3 87 8 150 12
63 3 124 8 135 10 121 24 1150 24 1355 0 19 -2 73 -7 120 -10 47 -4 92 -9 100
-11 8 -2 38 -6 65 -9 28 -3 59 -7 70 -10 11 -2 40 -7 65 -11 25 -3 77 -13 115
-20 39 -8 84 -16 100 -19 145 -26 457 -100 710 -170 91 -25 271 -81 460 -142
94 -30 178 -54 188 -54 9 0 17 -4 17 -10 0 -5 5 -10 10 -10 18 0 231 -81 307
-116 39 -19 74 -34 78 -34 13 0 324 -159 440 -225 66 -38 129 -74 140 -80 11
-6 38 -22 60 -36 67 -42 244 -153 270 -169 87 -54 359 -250 380 -274 14 -16
102 -86 108 -86 3 0 22 -16 42 -35 21 -19 46 -37 56 -40 10 -4 19 -10 19 -14
0 -5 42 -42 92 -82 51 -41 109 -88 128 -106 19 -18 46 -42 60 -53 173 -148
456 -427 504 -499 22 -32 34 -61 31 -70 -3 -9 -25 -49 -48 -89 -45 -80 -81
-122 -104 -122 -12 0 -183 130 -288 218 -11 9 -78 61 -150 114 -71 53 -141
106 -155 116 -42 33 -190 132 -196 132 -3 0 -32 20 -65 45 -58 44 -111 80
-172 114 -18 10 -79 47 -137 81 -151 90 -437 248 -535 294 -22 10 -51 25 -65
33 -23 13 -221 109 -355 174 -33 15 -94 42 -135 60 -41 17 -93 39 -115 48
-142 61 -303 121 -324 121 -9 0 -21 4 -26 9 -13 13 -286 103 -411 136 -55 14
-112 30 -129 35 -16 5 -41 11 -55 14 -14 2 -43 9 -66 15 -22 6 -63 15 -90 21
-27 5 -101 20 -164 34 -63 13 -194 38 -290 55 -96 18 -195 36 -220 42 -25 5
-65 11 -90 13 -25 2 -72 9 -105 15 -77 13 -276 38 -380 47 -44 4 -93 8 -110
10 -16 2 -138 6 -270 9 -321 7 -505 14 -532 19 -42 9 -72 41 -119 129 -54 101
-72 123 -134 164 -57 38 -152 62 -277 70 -127 7 -200 -11 -238 -61 -33 -43
-65 -133 -76 -216 -14 -98 -26 -126 -61 -143 -29 -14 -35 -14 -68 3 -19 10
-67 52 -106 94 -77 83 -132 128 -145 120 -5 -3 -9 -1 -9 4 0 15 -73 41 -134
48 -91 11 -217 -28 -267 -83 -53 -59 -64 -86 -74 -193 -4 -36 -11 -79 -16 -96
-9 -30 -35 -62 -51 -63 -10 -1 -11 -6 -3 -40 4 -20 16 -33 36 -41 17 -8 49
-39 74 -74 51 -72 76 -96 130 -126 50 -28 65 -31 150 -32 71 0 160 26 149 43
-3 5 1 6 8 4 18 -7 91 56 129 111 16 24 28 44 25 44 -3 0 5 11 17 24 12 13 35
51 51 84 52 109 99 106 211 -11 71 -74 89 -87 154 -112 82 -31 101 -35 177
-36 62 -1 129 16 165 42 15 10 31 19 37 19 19 0 152 170 152 195 0 26 94 38
293 38 303 1 546 -5 618 -14 110 -15 143 -21 149 -24 6 -3 79 -11 199 -20 41
-4 77 -8 80 -9 3 -2 31 -7 62 -10 31 -4 67 -9 80 -11 33 -7 176 -26 224 -30
22 -2 51 -6 65 -9 14 -3 43 -8 65 -11 22 -3 47 -7 55 -10 8 -2 31 -7 50 -10
19 -3 64 -13 100 -21 36 -9 72 -17 80 -19 8 -2 47 -11 85 -20 39 -9 77 -18 85
-20 8 -1 40 -10 70 -18 30 -9 114 -32 185 -52 198 -55 445 -138 580 -195 11
-4 36 -14 55 -21 47 -17 354 -146 409 -172 24 -11 50 -20 57 -20 8 0 14 -3 14
-7 0 -3 24 -17 53 -30 78 -35 400 -190 417 -201 8 -5 38 -21 65 -35 28 -14 57
-29 65 -34 8 -5 60 -35 115 -66 127 -73 280 -165 368 -221 37 -24 71 -43 75
-43 4 0 22 -12 39 -27 17 -16 54 -44 83 -63 28 -19 63 -45 78 -57 15 -13 30
-23 33 -23 3 0 19 -11 35 -25 16 -14 34 -29 39 -33 48 -35 91 -67 95 -72 3 -4
26 -21 52 -38 25 -18 52 -38 60 -45 7 -7 45 -35 83 -62 39 -27 75 -54 81 -60
6 -5 48 -41 94 -80 100 -85 112 -107 137 -240 5 -27 47 -150 68 -200 23 -54
45 -79 112 -134 32 -25 84 -72 116 -104 89 -88 122 -101 241 -99 119 2 132 -4
236 -115 131 -139 136 -152 145 -316 10 -179 43 -267 133 -355 48 -48 86 -67
147 -76 22 -3 70 -10 108 -15 52 -7 78 -17 115 -44 43 -33 92 -81 92 -92 0 -2
15 -28 34 -57 18 -29 47 -80 64 -114 29 -57 30 -67 30 -175 0 -123 3 -151 32
-241 34 -105 90 -168 196 -222 31 -15 60 -39 72 -58 24 -38 105 -252 133 -348
10 -36 23 -74 28 -85 9 -21 76 -253 111 -390 84 -325 146 -658 204 -1100 3
-22 5 -41 6 -42 0 -2 20 -3 45 -3 42 0 45 2 41 23 -3 12 -12 74 -21 137 -24
175 -24 173 -56 360 -16 96 -32 183 -35 192 -3 10 -7 30 -10 45 -19 112 -61
309 -90 421 -37 144 -43 205 -20 196 15 -6 49 -77 62 -129 4 -16 31 -97 61
-178 177 -490 397 -1420 458 -1940 4 -31 13 -61 20 -65 8 -4 43 -5 79 -4 l66
4 0 36 c0 21 -5 75 -10 122 -20 175 -31 287 -35 365 -13 224 -37 423 -71 600
-9 44 -18 94 -21 110 -19 116 -129 582 -143 607 -6 10 -10 26 -10 36 0 24
-120 461 -171 626 -47 148 -120 344 -148 396 -10 19 -26 57 -35 83 -14 43 -14
51 -1 84 8 19 28 49 45 66 120 122 120 408 0 560 -29 37 -95 99 -135 126 -46
31 -110 48 -210 56 -67 5 -155 42 -155 65 0 5 -6 15 -13 22 -7 7 -23 33 -35
58 -12 25 -34 65 -49 90 -33 56 -34 106 -3 215 32 112 24 188 -31 298 -44 89
-97 151 -171 199 -27 17 -48 34 -48 38 0 9 -122 44 -210 61 -36 7 -73 18 -83
24 -9 7 -52 57 -94 111 -42 54 -83 105 -90 112 -34 34 -45 75 -40 141 12 149
-39 272 -192 466 -77 97 -137 151 -200 183 -58 28 -128 37 -170 20 -40 -15
-84 -12 -127 10 -36 18 -64 45 -180 168 -22 23 -77 70 -124 105 -46 35 -91 70
-98 77 -8 7 -30 25 -50 40 -21 15 -42 32 -48 37 -43 39 -123 102 -219 170 -61
44 -146 109 -189 145 -44 36 -83 64 -88 62 -4 -1 -8 2 -8 7 0 6 -51 40 -112
77 -62 38 -117 72 -123 77 -23 19 -390 252 -455 289 -19 11 -39 24 -44 29 -6
5 -18 9 -28 9 -10 0 -18 4 -18 9 0 4 -21 19 -47 33 -130 67 -261 137 -289 154
-18 11 -58 34 -90 53 -33 19 -60 38 -62 43 -2 4 -7 8 -11 8 -5 0 -46 22 -92
48 -85 49 -304 163 -314 163 -6 0 -72 26 -100 39 -11 6 -69 28 -130 50 -60 23
-123 47 -140 55 -144 65 -483 187 -685 245 -41 12 -86 26 -100 30 -14 5 -72
20 -130 35 -58 15 -134 35 -170 45 -222 61 -416 111 -485 126 -44 9 -89 18
-100 20 -11 2 -36 7 -55 10 -19 3 -46 7 -60 10 -14 2 -45 6 -70 9 -25 3 -58 8
-75 10 -16 3 -55 7 -85 10 -30 3 -71 8 -90 11 -44 7 -68 10 -153 19 -37 3 -78
8 -89 10 -12 3 -60 7 -107 10 -46 3 -98 8 -115 10 -31 4 -129 12 -261 21 -91
6 -595 6 -660 0 -27 -3 -85 -8 -129 -11 -43 -4 -88 -9 -100 -11 -11 -3 -95 -7
-186 -9 -157 -4 -245 -10 -300 -19 -14 -2 -52 -7 -85 -10 -33 -3 -105 -13
-160 -21 -55 -9 -122 -18 -150 -21 -27 -4 -55 -10 -61 -15 -8 -6 -13 8 -17 48
-12 115 -44 160 -87 125 -21 -17 -22 -21 -10 -73 13 -57 11 -106 -4 -101 -5 2
-12 -1 -15 -7 -4 -6 -60 -20 -126 -31 -65 -11 -143 -27 -174 -35 -30 -8 -57
-12 -59 -10 -2 2 3 25 12 51 29 84 13 180 -41 262 -29 43 -120 115 -135 106
-4 -3 -8 8 -8 25 0 16 -4 33 -10 36 -20 12 -48 13 -59 2z m609 -511 c0 -2 -11
-24 -25 -49 -30 -52 -94 -118 -140 -143 -31 -16 -33 -16 -54 5 -51 51 -121 56
-214 18 -20 -9 -37 -13 -37 -10 0 3 -7 0 -15 -7 -8 -7 -15 -10 -15 -7 0 3 -27
-5 -60 -18 -33 -13 -60 -22 -60 -19 0 2 -22 -7 -50 -21 -55 -28 -72 -49 -91
-112 -7 -24 -17 -43 -23 -44 -71 -6 -124 -2 -173 13 -64 21 -166 86 -171 110
-3 17 81 48 287 107 57 17 106 32 109 35 2 3 -1 13 -8 21 -12 14 -10 14 16 5
35 -14 96 -16 144 -5 51 11 110 38 110 50 0 5 4 4 9 -4 8 -12 29 -11 143 13
73 15 167 36 208 46 75 18 110 23 110 16z m3665 -126 l20 -9 -20 -1 c-20 -2
-80 -1 -102 2 -7 1 -10 5 -7 10 7 10 83 9 109 -2z m-5570 -97 c5 -14 4 -15 -6
-6 -9 9 -18 9 -40 -3 -16 -8 -29 -11 -29 -6 0 7 41 28 61 31 4 1 10 -7 14 -16z
m-88 -19 c-3 -3 -12 -4 -19 -1 -8 3 -5 6 6 6 11 1 17 -2 13 -5z m650 -76 c-3
-7 -5 -2 -5 12 0 14 2 19 5 13 2 -7 2 -19 0 -25z m278 -128 c28 -13 55 -25 60
-27 6 -1 35 -8 65 -15 60 -14 132 -16 168 -4 19 6 25 2 38 -30 9 -21 17 -45
19 -53 4 -19 168 -504 184 -544 13 -34 14 -48 2 -28 -5 7 -19 13 -32 13 -34 0
-423 -140 -572 -206 -18 -7 -45 -19 -62 -25 -16 -6 -43 -16 -60 -22 -16 -7
-32 -13 -35 -14 -3 -1 -22 -9 -44 -18 -21 -9 -42 -17 -47 -17 -5 0 -6 -8 -2
-17 3 -10 3 -16 0 -13 -6 6 -146 415 -206 602 l-28 86 36 17 c72 32 153 124
196 220 24 55 44 153 39 188 -1 10 16 21 55 34 l56 18 60 -60 c33 -34 83 -72
110 -85z m-1242 95 c-3 -9 -8 -14 -10 -11 -3 3 -2 9 2 15 9 16 15 13 8 -4z
m414 -27 c-3 -7 -5 -2 -5 12 0 14 2 19 5 13 2 -7 2 -19 0 -25z m117 -41 c-20
-6 -34 -16 -38 -30 -3 -12 -7 -19 -10 -16 -3 2 2 26 11 52 l15 47 28 -23 27
-22 -33 -8z m334 -1 c-11 -93 -96 -219 -177 -260 -32 -17 -34 -17 -55 2 -58
52 -119 55 -236 12 -47 -17 -86 -31 -87 -31 -4 0 -35 -10 -74 -24 -20 -8 -39
-12 -41 -9 -3 2 -11 -2 -18 -11 -7 -8 -17 -15 -23 -15 -21 0 -76 -94 -72 -122
3 -19 -8 -21 -90 -20 -75 1 -175 31 -175 53 0 5 4 8 9 4 10 -5 250 112 262
128 3 5 8 8 10 7 2 0 30 10 62 24 56 25 69 40 45 49 -7 2 14 8 46 12 63 8 143
48 177 88 13 14 18 17 17 7 -2 -8 4 -14 12 -13 15 1 130 48 205 82 34 15 73
30 95 36 3 1 19 7 35 14 63 27 70 30 74 30 2 1 1 -19 -1 -43z m-478 -10 c0 -3
-4 -8 -10 -11 -5 -3 -10 -1 -10 4 0 6 5 11 10 11 6 0 10 -2 10 -4z m71 -69
c-10 -9 -11 -8 -5 6 3 10 9 15 12 12 3 -3 0 -11 -7 -18z m1219 -3 c0 -8 -5
-12 -10 -9 -6 4 -8 11 -5 16 9 14 15 11 15 -7z m-1457 -31 c-7 -2 -19 -2 -25
0 -7 3 -2 5 12 5 14 0 19 -2 13 -5z m1467 -3 c0 -5 -2 -10 -4 -10 -3 0 -8 5
-11 10 -3 6 -1 10 4 10 6 0 11 -4 11 -10z m457 -32 c-3 -8 -6 -5 -6 6 -1 11 2
17 5 13 3 -3 4 -12 1 -19z m-447 8 c0 -3 -4 -8 -10 -11 -5 -3 -10 -1 -10 4 0
6 5 11 10 11 6 0 10 -2 10 -4z m-1530 -66 c0 -5 -2 -10 -4 -10 -3 0 -8 5 -11
10 -3 6 -1 10 4 10 6 0 11 -4 11 -10z m390 -104 c0 -2 -7 -7 -16 -10 -8 -3
-12 -2 -9 4 6 10 25 14 25 6z m1427 -82 c-8 -8 -48 -13 -43 -6 2 4 14 8 26 9
12 1 20 0 17 -3z m-157 -51 c-8 -3 -21 -10 -28 -16 -9 -7 -11 -6 -6 7 3 9 16
16 28 15 14 0 16 -2 6 -6z m-2055 -67 c37 -21 76 -35 145 -53 29 -8 125 -9
151 -2 36 9 44 2 62 -56 15 -47 207 -618 223 -660 4 -11 4 -17 -1 -13 -19 18
-585 -302 -802 -453 l-42 -29 -15 22 c-9 12 -16 27 -16 32 0 5 -18 37 -39 71
-36 57 -39 67 -39 133 0 55 -6 84 -26 127 -18 41 -21 55 -11 55 7 0 58 33 112
73 144 108 374 262 463 310 19 11 42 25 50 31 8 7 54 34 103 61 48 27 87 54
87 61 0 27 -13 44 -34 44 -19 0 -268 -143 -375 -215 -24 -17 -51 -34 -60 -40
-76 -48 -198 -131 -253 -172 -36 -28 -80 -59 -97 -69 -18 -10 -29 -24 -26 -32
3 -9 0 -10 -15 -2 -11 6 -20 17 -20 25 0 8 -4 15 -8 15 -5 0 -15 12 -23 28 -7
15 -26 46 -41 69 -15 23 -28 44 -28 48 0 3 -9 15 -20 27 -11 12 -20 28 -20 36
0 8 23 39 51 70 50 54 90 123 103 179 13 48 38 93 52 93 8 0 45 20 82 44 60
40 272 165 280 166 2 0 23 -11 47 -24z m2407 -13 c10 -9 18 -23 18 -32 0 -10
-5 -7 -13 9 -7 13 -23 27 -37 31 -19 5 -20 7 -6 8 11 1 28 -6 38 -16z m104
-19 c1 -9 -1 -13 -4 -9 -4 4 -7 10 -7 13 0 4 -4 14 -9 22 -7 12 -6 13 4 3 8
-7 15 -20 16 -29z m-167 23 c-2 -1 -13 -9 -24 -17 -19 -14 -19 -14 -6 3 7 9
18 17 24 17 6 0 8 -1 6 -3z m-54 -27 c-3 -5 -12 -10 -18 -10 -7 0 -6 4 3 10
19 12 23 12 15 0z m-79 -19 c-3 -5 -15 -11 -26 -14 -17 -4 -19 -3 -9 9 12 15
44 20 35 5z m311 -43 c-3 -7 -5 -2 -5 12 0 14 2 19 5 13 2 -7 2 -19 0 -25z
m-449 -23 c-3 -3 -9 2 -12 12 -6 14 -5 15 5 6 7 -7 10 -15 7 -18z m282 -13 c0
-14 -2 -14 -9 -3 -5 8 -16 11 -25 8 -9 -4 -16 -2 -16 3 0 9 31 19 43 13 4 -2
7 -12 7 -21z m122 19 c11 6 22 9 24 6 2 -2 -7 -9 -20 -15 -20 -9 -27 -8 -37 6
-11 14 -11 15 1 5 9 -9 19 -9 32 -2z m-199 -31 c-3 -12 -8 -19 -11 -16 -5 6 5
36 12 36 2 0 2 -9 -1 -20z m-1350 -71 c-6 -6 -7 3 -4 23 4 28 6 29 9 9 2 -13
0 -27 -5 -32z m1221 -20 c-8 -14 -41 -11 -47 4 -4 10 3 12 24 9 16 -2 26 -8
23 -13z m-2736 -121 c-12 -18 -36 -48 -52 -65 -28 -31 -31 -32 -53 -18 -12 8
-29 15 -38 15 -29 0 -13 15 73 71 92 59 113 58 70 -3z m1522 42 c-24 -15 -36
-11 -14 4 10 8 21 12 24 10 2 -3 -2 -9 -10 -14z m-43 -16 c-3 -3 -12 -4 -19
-1 -8 3 -5 6 6 6 11 1 17 -2 13 -5z m-177 -54 c-8 -5 -19 -10 -25 -10 -5 0 -3
5 5 10 8 5 20 10 25 10 6 0 3 -5 -5 -10z m-55 -19 c-9 -8 -36 -10 -30 -2 2 4
11 8 20 8 8 0 13 -3 10 -6z m-78 -27 c-3 -3 -12 -4 -19 -1 -8 3 -5 6 6 6 11 1
17 -2 13 -5z m440 -16 c-3 -8 -6 -5 -6 6 -1 11 2 17 5 13 3 -3 4 -12 1 -19z
m-450 -30 c-3 -8 -6 -5 -6 6 -1 11 2 17 5 13 3 -3 4 -12 1 -19z m323 -12 c0
-2 -8 -10 -17 -17 -16 -13 -17 -12 -4 4 13 16 21 21 21 13z m-302 -41 c-3 -3
-9 2 -12 12 -6 14 -5 15 5 6 7 -7 10 -15 7 -18z m218 -4 c-3 -5 -24 -11 -46
-13 -48 -4 -39 9 10 15 19 2 36 5 38 5 2 1 1 -2 -2 -7z m256 -32 c5 -3 3 -13
-6 -21 -8 -9 -13 -18 -11 -20 3 -3 -2 -5 -10 -5 -11 0 -12 4 -5 11 5 5 10 24
11 41 0 16 3 23 6 15 3 -8 10 -18 15 -21z m-365 -31 c-3 -8 -6 -5 -6 6 -1 11
2 17 5 13 3 -3 4 -12 1 -19z m310 -14 c-3 -3 -12 -4 -19 -1 -8 3 -5 6 6 6 11
1 17 -2 13 -5z m-2017 -29 c-7 -8 -18 -15 -24 -15 -6 0 -2 7 8 15 25 19 32 19
16 0z m1637 -17 c-3 -8 -6 -5 -6 6 -1 11 2 17 5 13 3 -3 4 -12 1 -19z m-1712
-57 c0 -16 -3 -27 -7 -24 -13 7 -7 53 6 53 1 0 1 -13 1 -29z m1730 20 c3 -5 2
-12 -3 -15 -5 -3 -9 1 -9 9 0 17 3 19 12 6z m-2263 -18 c23 -27 101 -156 91
-150 -5 4 -27 34 -48 69 -21 35 -46 68 -54 75 -26 20 -75 15 -111 -12 -32 -24
-55 -35 -34 -17 63 55 126 69 156 35z m2344 -2 c-8 -12 -46 -21 -46 -11 0 9
18 18 38 19 7 1 11 -3 8 -8z m-1860 -123 c16 -25 51 -82 78 -125 98 -156 106
-171 88 -169 -22 4 -83 -46 -77 -61 8 -22 -6 -14 -56 30 -105 91 -136 115
-187 142 -37 20 -59 41 -76 71 l-24 42 99 83 c55 45 99 87 100 93 0 6 6 -5 13
-24 8 -19 26 -56 42 -82z m-686 57 c-19 -14 -36 -25 -39 -25 -10 0 53 49 63
50 6 0 -5 -11 -24 -25z m-50 -29 c0 -2 -19 -16 -42 -32 -24 -16 -47 -33 -51
-39 -6 -6 -7 -6 -5 2 2 6 23 26 48 42 46 32 50 34 50 27z m855 -56 c10 -11 16
-20 13 -20 -3 0 -13 9 -23 20 -10 11 -16 20 -13 20 3 0 13 -9 23 -20z m-472
-52 c16 -21 24 -38 20 -38 -8 0 -53 65 -53 77 0 3 1 4 3 2 2 -2 15 -21 30 -41z
m-432 -97 c11 -13 19 -28 19 -34 0 -11 -42 49 -65 93 -8 16 -15 33 -15 37 1 4
10 -10 22 -32 11 -22 29 -51 39 -64z m947 74 c-3 -3 -9 2 -12 12 -6 14 -5 15
5 6 7 -7 10 -15 7 -18z m510 -45 c7 -91 -50 -192 -126 -221 -62 -25 -188 -5
-221 34 -13 17 13 42 90 87 23 14 71 44 106 68 36 23 67 42 70 42 3 0 16 9 31
20 35 28 46 21 50 -30z m-964 -42 c-3 -4 -15 -13 -27 -19 -22 -10 -22 -10 1 8
20 17 21 20 8 38 -9 11 -15 25 -16 30 0 6 9 -3 19 -19 11 -17 18 -33 15 -38z
m496 37 c7 -9 8 -15 2 -15 -5 0 -12 7 -16 15 -3 8 -4 15 -2 15 2 0 9 -7 16
-15z m59 -79 c7 -8 8 -17 3 -19 -4 -3 -13 3 -20 14 -14 22 0 26 17 5z m-978
-60 c10 -23 14 -33 7 -22 -51 75 -59 89 -43 76 9 -7 25 -32 36 -54z m339 49
c0 -3 -109 -73 -185 -118 -11 -7 -32 -20 -48 -30 -29 -20 -57 -17 -57 5 0 9 3
8 10 -2 8 -13 12 -13 32 -1 13 8 34 21 48 28 14 8 63 38 110 68 90 58 90 57
90 50z m125 -35 c-10 -11 -24 -20 -30 -20 -7 0 -18 -7 -25 -15 -7 -8 -20 -15
-29 -14 -13 0 -14 2 -1 6 8 3 31 19 50 35 40 32 62 38 35 8z m108 -7 c18 -10
38 -24 45 -31 8 -6 23 -17 34 -23 11 -6 18 -13 15 -16 -6 -5 -43 15 -71 40
-11 9 -25 17 -32 17 -6 0 -17 7 -24 15 -16 20 -5 19 33 -2z m-532 -70 c13 -16
12 -17 -3 -4 -17 13 -22 21 -14 21 2 0 10 -8 17 -17z m307 4 c-14 -7 -34 -19
-45 -27 -10 -8 -29 -21 -43 -29 -23 -13 -24 -13 -10 3 8 10 23 22 35 27 11 6
31 16 45 24 14 8 30 14 35 14 6 0 -2 -6 -17 -12z m1099 -4 c3 -10 14 -29 23
-43 10 -14 32 -50 50 -80 30 -52 31 -54 6 -31 -22 21 -28 22 -43 10 -10 -8
-22 -20 -26 -26 -4 -7 -14 -13 -21 -13 -7 0 -21 -9 -31 -20 -10 -11 -24 -20
-31 -20 -7 0 -21 -11 -32 -25 -23 -29 -23 -28 -85 68 -38 58 -40 77 -9 77 38
0 162 85 162 110 0 17 30 11 37 -7z m-481 -27 c5 -12 50 -38 133 -76 8 -3 19
-15 25 -25 6 -10 14 -24 18 -29 37 -52 83 -127 94 -153 12 -27 12 -32 0 -27
-7 3 -60 -32 -117 -76 -57 -45 -123 -96 -146 -113 -23 -18 -45 -40 -49 -51 -6
-17 -8 -16 -30 10 -13 16 -23 33 -24 38 0 5 -11 24 -25 42 -14 18 -25 36 -25
39 0 3 -11 21 -25 39 -14 18 -25 38 -25 44 0 7 -4 12 -10 12 -21 0 -9 41 23
73 76 79 97 127 86 192 -2 11 1 19 7 18 6 -1 24 11 39 27 32 33 43 37 51 16z
m-248 -8 c15 -15 16 -28 2 -28 -5 0 -10 7 -10 16 0 8 -4 12 -10 9 -5 -3 -10
-1 -10 4 0 14 13 14 28 -1z m72 -92 c0 -8 -5 -18 -12 -22 -8 -5 -9 -2 -5 9 3
9 0 22 -6 29 -7 7 -16 22 -20 33 -6 16 -3 14 18 -7 14 -15 25 -34 25 -42z
m-603 24 c-14 -11 -29 -20 -33 -20 -4 0 -16 -7 -26 -17 -14 -12 -18 -31 -18
-81 0 -76 -7 -80 -10 -7 -4 79 -3 81 47 114 52 35 80 42 40 11z m583 -65 c0
-9 -132 -135 -165 -158 -26 -17 -25 -15 9 21 22 23 48 44 58 48 10 3 18 12 18
20 0 8 7 14 15 14 8 0 14 4 13 9 -2 5 6 18 17 29 19 20 35 27 35 17z m-642
-190 c0 -29 0 -29 -8 -5 -4 14 -8 36 -8 50 -1 23 0 23 8 5 5 -11 8 -33 8 -50z
m442 10 c0 -2 -10 -10 -22 -16 -21 -11 -22 -11 -9 4 13 16 31 23 31 12z m-65
-44 c-17 -16 -87 -52 -92 -47 -3 2 6 10 19 17 12 8 32 19 43 25 25 15 43 18
30 5z m209 -49 c15 -26 49 -83 77 -126 42 -69 63 -113 43 -93 -9 9 -74 -43
-74 -59 0 -8 -5 -14 -11 -14 -6 0 -30 -16 -54 -36 -41 -33 -65 -38 -65 -12 0
5 -11 23 -25 40 -14 16 -25 36 -25 44 0 8 -4 14 -10 14 -5 0 -19 17 -30 38
-12 20 -32 55 -45 77 -31 50 -31 63 0 75 28 11 98 54 138 87 35 28 48 23 81
-35z m-560 16 c8 -18 16 -42 18 -53 3 -17 10 -20 48 -17 25 2 58 9 74 17 16 8
36 15 46 15 9 0 21 5 27 11 6 6 17 9 25 6 16 -6 -9 -16 -120 -50 -76 -23 -82
-24 -96 -8 -9 9 -17 26 -19 37 -2 10 -8 29 -15 41 -13 23 -15 33 -7 33 2 0 11
-15 19 -32z m271 -198 c25 -38 65 -100 89 -137 23 -38 51 -83 60 -100 16 -32
16 -33 -4 -33 -24 0 -86 -57 -369 -341 -220 -219 -333 -339 -468 -496 -22 -26
-52 -60 -65 -74 -48 -54 -113 -132 -122 -148 -5 -9 -15 -20 -21 -26 -10 -8
-70 -82 -97 -120 -7 -9 -60 -76 -91 -115 -7 -8 -23 -31 -37 -50 -27 -39 -24
-35 -84 -110 -55 -69 -176 -259 -176 -276 0 -7 -4 -14 -9 -16 -5 -1 -41 -57
-80 -123 -40 -66 -76 -127 -81 -135 -45 -73 -95 -158 -104 -174 -6 -12 -25
-41 -42 -66 -41 -58 -104 -183 -148 -290 -41 -100 -173 -379 -188 -397 -8 -10
-14 -11 -25 -1 -20 16 -8 78 32 159 18 36 53 124 79 195 26 71 51 137 57 147
5 10 7 22 4 27 -4 6 -2 10 4 10 5 0 13 10 17 23 4 12 34 78 66 147 33 69 73
159 88 200 55 148 105 260 172 380 35 63 118 192 130 200 4 3 19 30 33 60 14
30 30 62 35 70 158 260 302 475 516 767 9 13 45 62 80 110 35 49 67 93 71 98
212 265 247 307 413 484 19 20 63 67 98 104 34 37 62 73 62 80 0 12 32 34 52
36 4 1 28 -30 53 -69z m12515 -540 c54 -60 83 -124 76 -165 -7 -36 -30 -56
-56 -47 -18 6 -60 43 -60 53 0 4 -15 31 -34 59 -29 44 -33 56 -25 82 19 69 48
75 99 18z m-185 -156 c9 -4 38 -37 64 -75 52 -74 56 -99 20 -138 -30 -32 -54
-27 -117 24 -56 44 -87 102 -78 141 10 38 70 63 111 48z m863 -860 c7 -8 17
-14 21 -14 10 0 81 -133 81 -151 0 -8 -25 -34 -56 -59 -31 -25 -61 -50 -68
-57 -17 -15 -29 -6 -65 52 -68 111 -79 151 -48 185 61 68 98 80 135 44z m533
-1067 c20 -15 36 -45 59 -110 10 -29 35 -95 55 -147 124 -324 271 -856 355
-1287 18 -87 43 -214 57 -283 40 -196 44 -222 37 -265 -11 -68 -20 -73 -37
-19 -8 27 -18 67 -22 89 -21 125 -93 394 -196 725 -138 441 -128 412 -209 625
-59 154 -63 164 -140 315 -86 171 -120 255 -120 297 0 30 5 36 43 53 48 22 95
25 118 7z m-17251 -1907 c0 -5 16 -12 35 -16 19 -3 35 -10 35 -15 0 -5 7 -9
15 -9 19 0 51 -18 84 -47 13 -12 28 -20 33 -17 5 3 7 0 6 -7 -2 -7 7 -18 19
-24 13 -7 21 -14 18 -17 -2 -2 11 -21 30 -41 19 -20 35 -40 35 -43 0 -3 13
-24 28 -47 27 -39 44 -73 46 -89 1 -4 7 -13 14 -19 6 -7 12 -21 12 -30 0 -10
5 -21 10 -24 6 -3 10 -17 10 -31 0 -13 5 -24 10 -24 6 0 10 -11 10 -24 0 -14
5 -28 10 -31 6 -3 10 -17 10 -30 0 -13 5 -27 10 -30 6 -3 10 -23 10 -44 0 -20
4 -41 8 -46 5 -6 15 -44 22 -85 7 -41 16 -79 20 -85 4 -5 8 -35 9 -65 1 -30 6
-71 10 -90 4 -19 8 -82 10 -140 1 -58 4 -124 7 -148 10 -67 11 -302 2 -302 -4
0 -8 -33 -8 -74 0 -41 -4 -78 -10 -81 -5 -3 -10 -28 -10 -56 0 -27 -4 -49 -10
-49 -5 0 -10 -20 -10 -44 0 -25 -4 -48 -10 -51 -5 -3 -10 -17 -10 -30 0 -13
-4 -26 -9 -29 -4 -3 -11 -23 -15 -43 -3 -21 -17 -59 -31 -85 -14 -26 -25 -52
-25 -58 0 -6 -14 -32 -31 -56 -17 -25 -32 -52 -33 -60 -1 -7 -17 -31 -35 -51
-19 -21 -33 -40 -33 -43 0 -3 -11 -18 -26 -35 -15 -16 -26 -34 -24 -38 1 -5
-2 -5 -8 -2 -6 4 -14 -1 -16 -12 -5 -18 -69 -53 -99 -53 -8 0 -15 -4 -15 -9 0
-8 -19 -18 -50 -26 -3 -1 -13 -5 -23 -10 -41 -18 -237 13 -237 37 0 4 -9 8
-21 8 -11 0 -17 5 -14 10 3 6 0 10 -7 10 -18 0 -101 84 -92 93 4 4 0 7 -9 7
-10 0 -17 8 -17 19 0 11 -3 21 -7 23 -14 6 -53 67 -53 82 0 9 -9 31 -20 51
-11 20 -20 42 -20 49 0 7 -7 27 -15 43 -8 17 -18 50 -21 74 -4 24 -10 54 -15
67 -5 13 -9 43 -9 68 0 24 -4 44 -9 44 -8 0 -20 67 -27 155 -14 164 -18 265
-12 265 5 0 8 11 8 25 0 20 5 25 25 25 14 0 28 6 31 14 3 8 15 11 31 8 l25 -5
-6 69 c-13 153 -18 374 -9 387 6 6 13 62 17 122 4 61 8 117 10 125 11 56 16
91 19 130 1 25 6 50 10 56 3 6 10 43 13 82 4 46 12 73 20 76 8 3 14 17 14 31
0 14 5 25 10 25 6 0 10 13 10 28 0 15 4 32 10 38 5 5 11 18 13 29 2 11 12 36
22 55 11 19 18 39 17 43 -1 5 2 6 7 3 5 -4 12 3 16 14 10 30 88 106 118 114
15 3 27 11 27 16 0 6 25 10 55 10 30 0 55 -4 55 -10z"/>
<path d="M9135 20481 c-6 -5 -24 -11 -40 -14 -45 -7 -213 -77 -450 -187 -38
-18 -74 -34 -80 -36 -5 -1 -28 -10 -50 -20 -22 -10 -42 -18 -45 -19 -3 0 -25
-10 -50 -21 -37 -17 -46 -26 -48 -49 -2 -27 -1 -27 38 -22 23 3 53 13 68 23
15 10 32 19 38 20 6 1 42 15 80 32 38 16 87 38 109 48 22 9 45 18 50 20 6 1
28 10 50 20 22 10 42 18 45 19 3 1 17 5 33 9 15 5 27 12 27 17 0 5 9 9 20 9
11 0 28 4 38 9 9 5 60 24 112 41 105 36 132 54 128 84 -2 15 -12 22 -33 24
-17 2 -35 -1 -40 -7z"/>
<path d="M6865 19104 c-38 -24 -85 -51 -102 -61 -18 -9 -33 -19 -33 -23 0 -3
-20 -16 -45 -30 -37 -20 -45 -30 -45 -53 0 -35 29 -47 110 -47 51 0 64 4 102
33 57 43 90 111 86 177 l-3 49 -70 -45z"/>
<path d="M5118 20227 c-20 -7 -46 -24 -58 -39 -12 -16 -30 -28 -40 -28 -33 0
-89 -58 -95 -98 -3 -20 -13 -61 -21 -90 -8 -29 -13 -66 -9 -81 9 -40 55 -81
101 -88 47 -7 54 -16 44 -57 -26 -117 67 -265 194 -306 104 -34 215 -10 291
61 74 69 101 137 97 244 -4 102 -90 213 -189 245 -21 7 -41 14 -45 16 -3 2 0
25 8 51 17 55 12 74 -27 114 -23 24 -43 33 -87 39 -31 4 -70 13 -85 19 -33 13
-31 13 -79 -2z"/>
<path d="M6140 20186 c-19 -6 -51 -20 -70 -30 -123 -67 -181 -248 -118 -371
66 -127 183 -184 328 -160 61 10 89 26 143 80 53 54 76 98 86 164 18 123 -52
253 -167 303 -54 24 -151 31 -202 14z"/>
<path d="M14635 15188 c-26 -14 -36 -30 -30 -45 2 -7 0 -15 -5 -18 -18 -11
-11 -64 10 -77 11 -7 20 -18 20 -25 0 -7 3 -13 8 -13 4 0 12 -10 17 -22 6 -13
17 -22 25 -20 8 2 12 1 8 -3 -4 -4 -2 -19 3 -34 14 -36 14 -88 -1 -106 -16
-19 -39 -19 -78 0 -34 18 -93 15 -116 -4 -9 -8 -16 -10 -16 -7 0 4 -9 2 -20
-4 -16 -9 -19 -17 -14 -48 7 -44 21 -72 35 -72 6 0 8 -4 5 -9 -11 -17 65 -52
103 -49 30 2 37 -1 39 -17 1 -11 -6 -30 -16 -41 -11 -11 -23 -31 -27 -45 -4
-13 -18 -37 -31 -52 -23 -27 -28 -41 -25 -60 1 -5 -2 -6 -7 -3 -4 2 -17 -12
-28 -32 -10 -20 -31 -55 -46 -77 -14 -22 -24 -43 -22 -47 3 -5 -2 -8 -11 -8
-9 0 -14 -4 -11 -9 3 -5 -1 -14 -9 -21 -8 -7 -15 -18 -15 -25 0 -6 -9 -20 -20
-30 -11 -10 -18 -20 -16 -23 3 -2 -6 -16 -19 -30 -13 -14 -22 -29 -19 -34 3
-4 1 -8 -4 -8 -4 0 -18 -18 -31 -40 -12 -22 -26 -40 -31 -40 -4 0 -15 -15 -23
-32 -9 -18 -25 -43 -37 -55 -11 -13 -18 -23 -14 -23 4 0 -4 -13 -19 -28 -15
-16 -24 -32 -20 -36 5 -4 1 -6 -7 -4 -8 2 -14 -3 -15 -10 0 -8 -8 -19 -17 -26
-10 -7 -18 -21 -18 -30 0 -9 -7 -16 -16 -16 -8 0 -13 -4 -10 -9 3 -5 -1 -14
-9 -21 -8 -7 -15 -19 -15 -26 0 -8 -6 -14 -14 -14 -8 0 -23 -18 -33 -39 -10
-22 -26 -42 -35 -44 -10 -3 -21 -13 -25 -23 -6 -17 -24 -42 -50 -69 -7 -8 -13
-17 -13 -22 0 -4 -11 -20 -24 -35 -14 -14 -23 -28 -20 -30 2 -3 -11 -19 -28
-36 -46 -43 -58 -59 -51 -66 4 -3 -1 -6 -10 -6 -9 0 -24 -12 -34 -26 -31 -45
-100 -114 -106 -107 -4 3 -7 0 -7 -9 0 -21 -46 -58 -74 -58 -21 0 -24 5 -30
68 -4 37 -9 108 -12 157 -3 50 -10 92 -15 93 -5 2 -9 19 -9 38 0 19 -5 34 -11
34 -23 0 -39 30 -39 74 0 25 4 46 10 46 12 0 1 123 -12 128 -4 2 -8 13 -8 23
0 11 -6 32 -14 47 -7 15 -16 47 -19 71 -3 24 -11 47 -18 51 -6 4 -9 12 -6 17
3 5 -1 22 -9 37 -7 16 -14 39 -14 52 0 13 -4 24 -10 24 -5 0 -10 15 -10 33 0
21 -8 41 -20 52 -10 9 -19 20 -18 24 3 28 -4 61 -12 56 -5 -3 -10 2 -10 12 0
22 -64 156 -71 149 -3 -3 -6 5 -6 17 -1 12 -7 23 -13 25 -5 2 -10 12 -10 21 0
10 -9 26 -20 36 -11 10 -20 26 -20 37 0 10 -4 18 -10 18 -5 0 -10 7 -10 15 0
9 -10 19 -22 24 -13 5 -21 11 -18 14 3 3 -5 17 -17 30 -12 14 -19 28 -16 31 4
3 -1 6 -10 6 -9 0 -17 7 -17 16 0 9 -9 18 -20 21 -11 3 -20 12 -20 19 0 8 -4
14 -8 14 -4 0 -17 7 -27 15 -54 41 -102 67 -132 72 -18 3 -36 10 -39 14 -7 12
-121 12 -128 0 -3 -4 -23 -11 -43 -15 -38 -6 -127 -45 -108 -46 6 0 -7 -9 -28
-19 -20 -9 -34 -20 -30 -24 3 -4 -1 -7 -11 -7 -9 0 -14 -4 -11 -10 3 -5 -3
-10 -14 -10 -15 0 -21 -6 -21 -22 0 -12 -3 -18 -7 -15 -6 6 -53 -54 -53 -68 0
-4 -9 -19 -20 -34 -10 -15 -21 -49 -23 -74 -1 -26 -6 -50 -10 -53 -11 -12 -8
-64 4 -64 6 0 9 -6 6 -14 -3 -7 1 -25 8 -39 7 -14 11 -28 9 -30 -3 -2 2 -10
11 -17 8 -7 15 -18 15 -24 0 -6 9 -19 20 -29 11 -9 20 -24 20 -32 0 -8 5 -15
10 -15 6 0 10 -9 10 -20 0 -11 9 -25 20 -32 11 -7 20 -23 20 -35 0 -12 3 -23
8 -25 4 -1 18 -25 32 -53 14 -27 28 -52 31 -55 8 -7 49 -96 49 -108 0 -5 7
-15 15 -22 8 -7 17 -27 21 -46 3 -19 10 -34 16 -34 5 0 7 -4 4 -8 -2 -4 1 -21
9 -37 7 -17 16 -38 19 -47 7 -24 26 -23 26 2 0 11 5 20 10 20 6 0 10 -7 10
-16 0 -8 6 -22 14 -29 10 -11 11 -27 4 -71 -6 -38 -5 -61 2 -68 5 -5 10 -25
10 -44 0 -20 4 -31 10 -27 12 7 17 -5 25 -58 3 -21 10 -47 15 -57 6 -10 10
-28 10 -40 0 -11 7 -35 17 -53 9 -18 17 -54 19 -80 1 -26 8 -55 14 -63 7 -7
10 -14 8 -14 -3 0 3 -39 14 -87 11 -49 23 -117 28 -153 5 -36 15 -86 23 -112
8 -26 13 -49 11 -51 -2 -2 1 -30 7 -63 5 -32 12 -79 14 -104 2 -25 7 -74 11
-110 11 -93 12 -125 14 -410 1 -252 -1 -331 -13 -380 -3 -14 -9 -47 -12 -75
-3 -27 -9 -72 -15 -100 -5 -27 -12 -70 -16 -95 -4 -25 -10 -49 -14 -55 -4 -5
-10 -29 -14 -52 -3 -24 -13 -64 -22 -89 -8 -25 -16 -54 -17 -65 -1 -10 -5 -19
-9 -19 -4 0 -8 -9 -8 -21 0 -11 -4 -28 -9 -37 -5 -9 -10 -30 -12 -47 -2 -16
-6 -34 -10 -40 -30 -43 -27 -275 3 -275 5 0 6 -4 3 -10 -3 -5 0 -10 7 -11 7 0
22 -3 33 -5 53 -13 113 -16 119 -5 4 6 16 11 28 11 23 0 98 39 98 52 0 4 7 8
16 8 8 0 13 4 10 9 -3 5 3 11 14 14 11 3 20 13 20 22 0 9 5 13 10 10 6 -3 10
-1 10 5 0 6 13 28 30 48 38 48 81 133 73 145 -3 6 -2 7 3 4 9 -5 55 85 54 105
0 5 9 24 20 43 11 20 20 45 20 56 0 11 4 28 9 37 5 9 11 33 14 52 3 19 12 64
20 100 9 36 21 92 27 125 6 33 16 78 21 100 4 22 10 60 11 85 2 25 6 47 10 51
4 3 10 49 13 104 3 54 10 104 16 112 6 7 9 13 5 13 -3 0 -1 11 4 24 4 13 10
54 11 92 1 38 8 80 15 93 7 14 10 29 7 34 -3 6 -1 7 5 3 7 -4 12 -20 12 -35 0
-15 3 -31 7 -35 4 -4 9 -30 11 -59 2 -29 8 -53 13 -55 5 -2 9 -17 9 -32 0 -16
5 -32 10 -35 6 -3 10 -17 10 -31 0 -13 5 -24 10 -24 6 0 10 -10 10 -23 0 -13
3 -27 7 -31 4 -3 8 -16 10 -29 2 -12 8 -26 13 -31 6 -6 10 -18 10 -27 0 -9 14
-43 30 -74 17 -31 30 -68 30 -81 0 -13 3 -24 8 -24 7 0 37 -62 42 -85 1 -5 8
-17 15 -25 14 -15 15 -19 15 -46 0 -8 5 -12 10 -9 6 3 10 -1 10 -9 0 -18 38
-94 51 -102 5 -3 9 -14 9 -25 0 -10 4 -19 9 -19 5 0 12 -8 15 -17 12 -34 42
-84 54 -92 6 -4 13 -17 15 -29 2 -12 12 -32 23 -44 11 -13 26 -36 34 -53 8
-16 21 -38 30 -47 31 -35 40 -47 40 -56 0 -5 9 -17 20 -27 11 -10 20 -24 20
-31 0 -7 6 -17 14 -21 7 -4 26 -28 42 -52 59 -88 65 -96 75 -93 6 1 8 -2 5 -7
-4 -5 -1 -13 4 -16 6 -4 15 -18 20 -31 5 -13 16 -24 23 -24 8 0 19 -12 25 -26
7 -15 17 -22 24 -18 6 4 8 3 5 -3 -3 -5 13 -30 38 -54 24 -24 41 -47 39 -51
-3 -5 2 -8 11 -8 9 0 13 -4 10 -10 -3 -5 -1 -10 5 -10 15 0 80 -66 80 -81 0
-7 3 -10 6 -6 5 5 108 -86 153 -135 8 -10 19 -18 23 -18 5 0 24 -14 42 -31 19
-17 38 -30 42 -29 4 1 10 -3 13 -8 10 -16 89 -61 95 -55 3 4 6 -2 6 -12 0 -10
3 -15 7 -12 3 4 15 0 25 -10 10 -9 18 -12 18 -7 0 5 4 3 9 -4 4 -7 15 -14 24
-16 9 -1 24 -9 34 -18 22 -18 194 -76 244 -81 20 -2 41 -7 48 -11 17 -11 369
-10 384 1 6 5 23 10 36 11 13 0 43 10 67 21 24 12 48 21 54 21 5 0 10 5 10 10
0 6 5 10 11 10 7 0 21 10 33 23 12 12 43 41 69 65 26 23 47 49 47 57 0 8 7 15
15 15 9 0 20 11 25 24 5 13 13 27 18 30 5 3 22 31 38 63 24 51 28 69 27 148 0
57 -5 99 -14 115 -27 48 -74 100 -91 100 -10 0 -18 4 -18 9 0 5 -17 15 -37 21
-21 7 -42 16 -47 21 -6 5 -20 9 -32 9 -13 0 -26 5 -29 10 -3 6 -21 10 -39 10
-17 0 -36 4 -42 8 -5 5 -34 14 -64 21 -30 7 -73 20 -95 30 -39 17 -99 40 -120
45 -5 1 -39 16 -75 33 -36 16 -76 34 -90 38 -14 4 -28 12 -31 17 -3 5 -12 10
-20 12 -8 1 -32 13 -54 27 -22 13 -53 31 -70 39 -16 8 -34 18 -40 23 -30 23
-86 56 -104 62 -12 3 -26 15 -31 26 -6 10 -17 19 -24 19 -7 0 -21 9 -31 20
-10 11 -22 20 -27 20 -5 0 -26 16 -46 35 -20 19 -40 35 -45 35 -4 0 -22 13
-40 30 -17 16 -58 53 -89 82 -140 129 -198 186 -198 197 0 7 -4 9 -10 6 -5 -3
-10 1 -10 10 0 9 -4 13 -10 10 -5 -3 -10 1 -10 10 0 9 -9 19 -20 22 -11 3 -20
11 -20 17 0 7 -9 22 -20 34 -11 12 -20 27 -20 33 0 7 -3 9 -7 6 -3 -4 -11 3
-18 16 -6 12 -17 21 -24 19 -7 -1 -10 2 -7 7 4 5 -5 21 -19 35 -14 14 -25 30
-25 36 0 5 -4 10 -10 10 -5 0 -10 6 -10 14 0 7 -11 21 -25 30 -14 9 -25 23
-25 31 0 8 -10 24 -22 35 -13 12 -23 25 -23 30 0 4 -9 17 -20 27 -24 22 -45
58 -45 77 0 8 -9 18 -20 21 -11 3 -20 15 -20 26 0 10 -4 19 -9 19 -5 0 -16 15
-25 34 -8 18 -22 39 -31 46 -8 7 -15 19 -15 26 0 8 -4 14 -10 14 -5 0 -10 6
-10 14 0 8 -3 16 -7 18 -11 4 -53 87 -53 104 0 8 7 14 15 14 9 0 19 8 23 18 4
9 25 42 47 72 22 30 39 57 38 60 -1 3 5 9 13 13 8 5 12 12 9 18 -4 5 -1 9 4 9
6 0 11 7 11 15 0 8 9 19 20 25 11 6 20 17 20 25 0 7 14 29 30 47 17 18 30 38
30 45 0 7 3 13 8 13 4 0 12 10 18 23 35 69 48 89 60 94 8 3 14 11 14 19 0 17
18 50 43 78 9 11 17 25 17 32 0 7 6 19 13 26 14 14 16 17 24 48 3 11 9 20 14
20 5 0 9 7 9 15 0 8 5 15 10 15 6 0 10 7 10 15 0 8 5 15 10 15 6 0 10 9 10 20
0 11 5 20 10 20 6 0 10 11 10 25 0 14 5 25 10 25 6 0 10 9 10 19 0 11 5 21 10
23 6 2 12 13 13 25 0 12 4 20 7 18 3 -2 12 11 19 28 38 91 55 127 61 127 8 0
36 71 32 83 -1 5 2 6 7 3 5 -3 12 6 16 22 6 25 14 46 45 117 8 17 14 32 15 35
1 3 7 18 13 33 7 16 12 37 12 48 0 10 4 19 9 19 11 0 33 60 23 60 -4 0 -2 4 3
8 9 6 36 80 36 97 0 3 8 25 19 51 11 25 20 54 20 63 0 10 10 47 21 82 12 35
22 79 23 96 2 18 10 41 19 51 9 10 17 33 19 51 1 18 6 35 11 38 14 9 66 10 61
1 -3 -4 0 -8 6 -8 6 0 29 -18 51 -40 57 -57 114 -61 167 -11 18 18 22 32 22
88 0 48 -5 72 -17 85 -9 11 -18 26 -19 35 -4 25 -46 103 -56 103 -4 0 -8 14
-8 30 0 28 3 30 36 30 19 0 44 -5 54 -10 22 -12 124 6 115 20 -3 5 8 14 24 21
25 11 30 20 33 57 2 24 1 45 -2 47 -3 2 -25 4 -50 6 -25 1 -49 6 -55 10 -5 4
-26 9 -45 11 -19 1 -38 8 -42 13 -4 6 -11 10 -15 11 -4 0 -19 5 -33 11 -69 29
-99 128 -65 218 15 40 13 86 -5 110 -20 27 -39 29 -61 9 -11 -9 -20 -13 -20
-8 -1 5 -5 -16 -10 -46 -11 -83 -25 -140 -37 -152 -6 -6 -32 -13 -59 -15 -43
-5 -51 -2 -73 23 -14 16 -32 45 -39 64 -8 19 -18 39 -23 45 -4 5 -8 16 -8 25
0 8 -12 29 -28 47 -23 27 -30 30 -47 21z"/>
<path d="M7677 13724 c-1 -2 -36 -5 -77 -8 -76 -4 -161 -23 -170 -37 -3 -5
-20 -9 -38 -11 -17 -1 -34 -8 -36 -15 -3 -7 -12 -13 -21 -13 -24 0 -180 -89
-177 -101 1 -6 -2 -8 -6 -5 -13 8 -54 -29 -44 -39 4 -5 2 -5 -4 -2 -6 4 -28
-10 -48 -30 -20 -20 -36 -33 -36 -30 0 4 -9 -1 -19 -10 -11 -9 -17 -21 -14
-26 3 -6 2 -7 -3 -4 -10 5 -175 -155 -175 -170 -1 -14 -21 -33 -30 -27 -5 3
-9 -2 -9 -10 0 -9 -7 -16 -16 -16 -8 0 -12 -4 -9 -10 3 -5 2 -10 -3 -10 -5 0
-15 -13 -22 -30 -7 -16 -21 -32 -31 -35 -10 -4 -19 -12 -19 -19 0 -6 -5 -17
-12 -24 -15 -15 -19 -42 -7 -42 21 0 7 -19 -21 -29 -28 -9 -50 -43 -50 -77 0
-19 57 -19 76 0 8 8 14 17 14 20 0 3 8 14 18 25 9 10 35 38 58 62 23 24 46 54
53 67 6 12 21 22 31 22 18 0 25 10 21 33 0 4 4 7 10 7 6 0 26 12 45 28 18 15
45 36 59 47 15 11 33 26 40 33 8 7 17 13 20 12 26 -1 35 2 30 10 -3 6 0 10 8
10 8 0 22 9 32 20 10 11 26 20 37 20 10 0 18 5 18 10 0 6 8 10 18 10 10 0 22
3 26 7 3 4 16 8 28 10 12 2 27 8 35 14 7 6 13 8 13 5 0 -4 8 -2 18 3 19 10 40
15 127 31 61 10 218 6 263 -8 18 -6 36 -11 40 -11 17 -2 117 -56 133 -72 11
-11 24 -19 30 -19 13 0 59 -47 59 -60 0 -4 3 -10 8 -12 20 -8 84 -101 116
-168 64 -134 98 -249 112 -380 3 -25 8 -52 11 -60 4 -8 7 -28 9 -45 4 -51 5
-357 0 -405 -10 -119 -19 -186 -26 -195 -5 -5 -9 -28 -11 -50 -1 -22 -6 -45
-11 -51 -4 -6 -9 -32 -9 -58 -1 -26 -6 -49 -11 -52 -4 -3 -8 -15 -8 -27 0 -12
-7 -35 -15 -51 -8 -15 -15 -41 -15 -56 0 -16 -6 -35 -14 -43 -8 -8 -17 -35
-21 -60 -4 -25 -16 -54 -26 -63 -10 -9 -19 -27 -19 -40 0 -12 -11 -32 -25 -45
-13 -13 -25 -32 -25 -41 0 -9 -6 -23 -13 -30 -7 -7 -20 -28 -28 -45 -7 -18
-17 -33 -21 -33 -4 0 -22 -15 -39 -32 -17 -18 -34 -32 -37 -31 -8 1 -48 -28
-95 -69 -17 -15 -33 -25 -37 -23 -4 2 -19 -2 -33 -10 -15 -8 -30 -14 -32 -14
-3 1 -24 -2 -47 -6 -74 -13 -192 -13 -210 -1 -15 11 -14 17 11 69 15 31 31 54
34 50 4 -3 7 1 7 10 0 10 5 17 10 17 6 0 10 11 10 24 0 13 4 26 10 28 5 2 11
12 14 23 9 42 19 65 28 65 6 0 8 10 5 21 -3 12 0 28 9 36 8 8 14 25 14 38 0
13 4 26 8 29 5 3 14 36 21 75 7 38 14 75 15 83 52 263 57 819 9 958 -3 8 -7
28 -9 45 -3 16 -9 34 -14 39 -6 6 -10 20 -10 33 0 13 -4 23 -10 23 -5 0 -10
11 -10 25 0 14 -9 30 -20 37 -11 7 -20 18 -20 23 0 19 -66 84 -96 95 -16 6
-30 10 -30 8 -1 -2 -10 4 -20 13 -24 21 -65 31 -134 33 -64 3 -100 -3 -100
-15 0 -16 -34 -49 -51 -49 -9 0 -21 -11 -27 -25 -15 -32 -16 -102 -2 -110 6
-3 10 -15 10 -26 0 -10 5 -19 12 -19 6 0 9 -3 5 -6 -8 -8 13 -64 24 -64 5 0 9
-6 9 -12 0 -7 6 -24 13 -38 7 -14 22 -55 32 -92 11 -38 22 -68 25 -68 3 0 7
-12 8 -27 1 -15 7 -32 12 -37 6 -6 10 -22 10 -37 0 -15 4 -30 8 -33 4 -2 9
-21 10 -42 2 -20 6 -42 9 -47 3 -5 8 -28 10 -51 3 -23 9 -57 14 -76 5 -19 9
-62 9 -96 0 -33 3 -63 6 -67 7 -7 7 -179 0 -251 -3 -28 -8 -105 -12 -171 -4
-77 -10 -125 -19 -135 -7 -8 -16 -45 -19 -82 -3 -37 -10 -76 -16 -87 -5 -11
-10 -24 -9 -28 4 -25 -3 -52 -15 -56 -8 -3 -43 8 -78 25 -34 17 -69 31 -75 31
-7 0 -13 4 -13 8 0 4 -16 13 -35 20 -19 7 -35 16 -35 19 0 4 -16 12 -35 20
-19 8 -35 17 -35 21 0 3 -13 12 -30 19 -16 7 -30 16 -30 19 0 4 -15 14 -33 23
-27 13 -34 13 -45 2 -6 -7 -12 -17 -12 -21 0 -11 42 -48 63 -56 9 -3 17 -13
17 -22 0 -8 6 -15 13 -15 7 0 19 -9 27 -20 8 -11 20 -20 27 -20 7 0 13 -4 13
-10 0 -5 7 -10 15 -10 8 0 15 -6 15 -14 0 -9 7 -13 20 -11 11 2 19 -1 17 -7
-1 -6 8 -17 20 -23 13 -7 31 -19 41 -28 10 -10 28 -17 39 -17 12 0 23 -5 25
-11 2 -5 10 -11 18 -13 29 -6 50 -18 44 -27 -3 -5 3 -9 13 -9 23 0 73 -22 73
-32 0 -5 17 -8 39 -8 21 0 54 -6 72 -14 22 -9 77 -14 159 -14 143 0 180 5 180
24 0 8 5 14 10 14 6 0 10 -5 10 -10 0 -14 35 -6 89 18 24 11 52 19 63 17 11
-2 18 2 18 11 0 8 3 13 8 12 17 -4 100 45 105 63 3 11 9 19 14 18 16 -4 59 19
85 47 38 41 55 54 62 47 3 -4 6 2 6 12 0 10 3 16 6 12 7 -7 34 17 34 30 1 4
19 26 40 48 22 22 40 46 40 53 0 7 5 10 10 7 6 -3 10 0 10 8 0 8 7 20 15 27 8
7 12 17 8 23 -3 6 -1 7 5 3 9 -5 72 71 72 89 0 3 12 24 27 48 34 51 62 108 63
124 0 7 6 16 14 20 8 4 17 19 19 33 2 14 13 45 25 70 11 24 18 48 15 54 -3 5
-1 6 5 2 11 -6 15 5 11 30 0 4 4 10 9 13 13 9 55 130 54 160 0 14 4 31 8 36 8
11 28 86 33 125 2 14 7 32 10 40 18 44 33 468 19 534 -6 28 -18 92 -26 141 -8
50 -22 113 -32 140 -26 74 -27 79 -26 87 1 3 -5 12 -13 18 -8 7 -15 21 -15 31
0 11 -4 19 -8 19 -5 0 -9 6 -9 14 0 14 -57 110 -80 134 -7 7 -13 17 -13 21 0
16 -151 162 -160 156 -6 -4 -9 -2 -8 3 2 6 -1 10 -5 10 -5 1 -16 9 -25 19 -9
10 -35 27 -57 39 -22 11 -49 25 -60 31 -11 6 -31 15 -45 21 -14 5 -42 17 -62
26 -21 9 -44 16 -50 15 -7 -1 -20 1 -28 4 -8 4 -26 8 -40 9 -14 2 -29 6 -35
10 -9 5 -60 12 -167 23 -15 1 -29 1 -31 -1z"/>
<path d="M19838 13604 c-10 -3 -18 -12 -18 -20 0 -8 -6 -14 -14 -14 -8 0 -15
-8 -15 -17 -1 -10 -4 -85 -8 -168 -5 -82 -8 -183 -8 -222 0 -40 -3 -73 -7 -73
-10 0 -9 -63 1 -117 5 -24 4 -40 0 -37 -5 3 -10 -10 -10 -28 -3 -85 -6 -114
-12 -133 -3 -11 -7 -124 -9 -252 -2 -127 -6 -229 -10 -226 -5 2 -8 -3 -8 -11
0 -28 -1 -31 -18 -50 -9 -10 -15 -19 -13 -20 6 -2 -34 -86 -41 -86 -5 0 -8 -9
-8 -19 0 -11 -4 -23 -10 -26 -5 -3 -10 -15 -10 -26 0 -10 -4 -19 -10 -19 -5 0
-10 -8 -10 -18 0 -10 -7 -28 -16 -40 -8 -12 -12 -22 -7 -22 4 0 2 -4 -5 -9 -7
-4 -14 -14 -15 -22 -2 -8 -12 -28 -23 -44 -12 -17 -29 -45 -39 -64 -9 -19 -26
-43 -36 -54 -10 -12 -19 -27 -19 -34 0 -7 -11 -23 -25 -35 -13 -11 -22 -25
-19 -30 3 -4 -12 -8 -34 -8 -35 0 -40 3 -49 33 -11 36 -10 158 2 262 5 39 9
77 10 85 1 8 4 35 8 60 22 151 29 386 13 469 -13 69 -79 157 -124 164 -12 2
-25 6 -28 10 -13 12 -51 7 -95 -12 -23 -11 -50 -18 -61 -16 -10 2 -18 -1 -18
-7 0 -10 -49 -61 -60 -62 -3 -1 -4 -4 -3 -8 2 -5 0 -7 -5 -5 -4 1 -8 -1 -9 -6
-1 -4 -25 -35 -53 -70 -28 -34 -50 -72 -50 -85 0 -13 -4 -20 -10 -17 -9 5 -15
-18 -7 -29 1 -2 -5 -12 -15 -22 -9 -11 -23 -35 -31 -54 -15 -34 -15 -30 -16
92 -1 103 -5 138 -22 183 -11 30 -25 55 -30 55 -5 0 -9 10 -9 22 0 12 -3 19
-6 15 -4 -3 -23 1 -43 9 -55 23 -187 17 -226 -9 -16 -12 -33 -26 -37 -32 -4
-5 -12 -10 -17 -10 -10 0 -75 -65 -76 -75 0 -3 -17 -26 -37 -51 -21 -25 -38
-55 -38 -66 0 -12 -7 -24 -16 -27 -9 -4 -14 -9 -11 -13 4 -3 -2 -22 -12 -42
-11 -20 -26 -53 -35 -73 -10 -21 -19 -38 -21 -38 -1 0 -4 66 -4 148 -1 81 -4
170 -7 197 -3 28 -7 67 -9 88 -9 77 -53 108 -157 112 -46 2 -68 -11 -76 -46
-2 -7 -8 -17 -14 -20 -5 -3 -9 -26 -7 -50 1 -24 -1 -69 -5 -99 -4 -30 -8 -125
-10 -211 -2 -143 -5 -159 -24 -184 -12 -15 -22 -34 -22 -41 0 -8 -5 -14 -10
-14 -6 0 -9 -3 -8 -7 1 -5 -6 -22 -15 -40 -9 -18 -17 -39 -17 -47 0 -8 -3 -16
-7 -18 -15 -6 -44 -68 -38 -78 4 -6 3 -9 -2 -8 -4 2 -8 0 -8 -3 0 -4 -8 -16
-18 -26 -9 -11 -14 -23 -10 -26 3 -4 2 -7 -4 -7 -5 0 -20 -20 -32 -45 -12 -25
-26 -45 -31 -45 -4 0 -15 -15 -23 -33 -9 -18 -27 -43 -42 -57 -25 -24 -26 -24
-45 -4 -15 14 -20 35 -21 84 -2 75 9 238 17 251 3 5 7 23 9 41 2 18 8 54 13
80 28 140 -29 204 -142 159 -31 -12 -116 -97 -116 -116 0 -6 -5 -16 -12 -23
-6 -6 -13 -22 -15 -34 -2 -13 -10 -28 -18 -34 -8 -6 -15 -18 -15 -26 0 -9 -7
-21 -15 -28 -9 -7 -13 -15 -10 -18 3 -3 -1 -12 -9 -21 -8 -9 -15 -19 -16 -23
-8 -36 -14 -47 -21 -42 -5 3 -9 -4 -9 -15 0 -12 -3 -21 -8 -21 -4 0 -14 -15
-21 -32 -8 -18 -21 -39 -28 -46 -7 -8 -11 -17 -8 -22 3 -4 -2 -10 -10 -14 -8
-3 -15 -12 -15 -20 0 -8 -8 -22 -17 -32 -10 -9 -18 -23 -19 -31 -1 -8 -14 -23
-28 -34 -14 -11 -33 -27 -40 -35 -8 -8 -30 -14 -49 -14 -52 0 -75 44 -75 146
0 42 4 85 8 93 5 9 12 37 15 64 3 26 10 47 16 47 5 0 8 3 7 8 -1 4 6 23 17 42
10 19 20 44 22 55 2 10 8 22 15 26 6 4 8 11 4 17 -3 5 1 15 9 22 8 7 15 19 15
26 0 8 18 32 40 54 22 22 40 49 40 60 0 11 7 20 15 20 9 0 18 8 22 18 9 25 55
72 70 72 8 0 11 5 8 10 -3 6 1 10 9 10 9 0 16 7 16 15 0 8 3 15 8 15 4 0 23
14 42 30 19 16 41 30 48 30 7 0 15 7 18 15 4 8 14 15 24 15 10 0 23 6 29 14 7
8 24 17 38 21 14 3 39 18 54 33 25 23 29 35 29 78 0 36 -6 59 -20 77 -11 14
-20 30 -20 36 0 6 -21 21 -47 32 -27 12 -55 25 -63 29 -24 11 -160 12 -174 1
-6 -5 -26 -13 -44 -16 -18 -3 -41 -13 -52 -22 -10 -9 -29 -18 -41 -20 -23 -3
-47 -23 -112 -90 -22 -24 -46 -43 -51 -43 -10 -1 -56 -57 -82 -102 -6 -10 -20
-29 -31 -41 -12 -12 -24 -32 -28 -45 -3 -12 -17 -34 -31 -49 -22 -24 -29 -44
-24 -68 1 -5 -2 -7 -6 -2 -10 10 -40 -57 -48 -107 -4 -22 -11 -45 -17 -53 -6
-7 -8 -13 -4 -13 5 0 0 -9 -10 -20 -10 -11 -14 -20 -10 -20 5 0 -1 -9 -13 -20
-19 -18 -27 -41 -19 -54 1 -3 -7 -15 -18 -28 -31 -36 -65 -86 -65 -97 0 -5 -4
-11 -9 -13 -5 -1 -11 -10 -13 -18 -3 -16 -9 -25 -43 -62 -13 -16 -30 -28 -36
-28 -7 0 -10 -3 -6 -6 7 -7 -17 -34 -29 -34 -4 0 -15 -7 -25 -16 -28 -25 -106
-27 -139 -4 -16 11 -33 20 -40 20 -15 0 -41 26 -33 34 4 3 1 6 -6 6 -7 0 -18
6 -24 13 -22 22 -72 84 -92 112 -11 16 -25 34 -32 40 -7 7 -9 15 -6 19 3 3 -2
8 -11 12 -9 3 -16 12 -16 20 0 8 -5 14 -10 14 -6 0 -15 11 -22 25 -6 13 -15
22 -20 19 -4 -3 -11 3 -15 13 -7 22 -64 83 -76 83 -6 0 -16 8 -23 17 -16 22
-1 43 31 43 12 0 30 9 40 20 10 11 24 20 31 20 7 0 24 11 38 25 14 14 33 25
43 25 10 0 29 11 43 24 14 13 42 40 62 60 21 20 41 36 46 36 13 0 117 109 114
121 -1 5 5 12 13 15 8 4 15 15 15 25 0 10 6 19 14 19 8 0 18 10 22 23 3 12 14
33 24 47 13 19 17 43 16 100 -1 63 -5 79 -23 100 -13 13 -23 28 -23 33 0 24
-57 55 -94 50 -30 -4 -59 -26 -49 -37 4 -3 -3 -20 -15 -36 -12 -16 -22 -38
-22 -49 0 -11 -4 -23 -10 -26 -5 -3 -10 -14 -10 -25 0 -16 -19 -62 -55 -130
-8 -14 -24 -45 -37 -70 -13 -25 -32 -53 -43 -62 -11 -10 -17 -17 -13 -18 10 0
-16 -31 -74 -91 -27 -26 -48 -52 -48 -58 0 -6 -6 -11 -13 -11 -7 0 -24 -11
-39 -25 -15 -14 -34 -25 -43 -25 -15 0 -16 13 -11 111 3 61 8 114 10 117 2 4
7 41 10 81 4 41 10 79 13 84 3 4 7 78 9 163 3 146 3 154 -15 154 -11 0 -21 -6
-24 -12 -2 -8 -8 -9 -13 -4 -5 5 -4 11 4 13 14 5 16 43 2 43 -5 0 -10 9 -10
20 0 11 -4 20 -8 20 -5 0 -15 12 -22 26 -9 17 -20 24 -32 21 -21 -6 -22 5 -6
49 9 27 9 35 -5 48 -8 9 -22 16 -31 16 -13 0 -15 -18 -15 -107 0 -66 -4 -109
-11 -111 -5 -2 -10 -12 -10 -23 0 -10 -4 -19 -10 -19 -5 0 -10 9 -10 21 0 14
-5 19 -16 17 -14 -2 -18 -21 -21 -113 -2 -64 -9 -123 -17 -140 -8 -16 -17 -73
-20 -125 -3 -52 -10 -140 -15 -195 -5 -55 -13 -143 -17 -195 -4 -52 -13 -105
-20 -119 -7 -13 -10 -29 -7 -34 3 -6 1 -7 -5 -3 -11 6 -17 -12 -13 -36 0 -5
-5 -8 -13 -8 -9 0 -13 -7 -11 -19 2 -11 -5 -27 -16 -37 -10 -9 -19 -22 -19
-29 0 -7 -11 -33 -24 -58 -14 -25 -21 -49 -18 -53 4 -4 2 -4 -4 -1 -7 4 -17
-6 -25 -26 -7 -17 -19 -36 -26 -40 -7 -5 -11 -12 -8 -16 2 -5 -4 -16 -15 -26
-11 -10 -20 -23 -20 -30 0 -15 -46 -55 -64 -55 -37 0 -47 57 -50 280 -1 91 1
181 6 202 4 20 10 58 12 85 3 26 9 71 14 98 4 28 8 100 8 160 l-1 110 -40 37
c-22 21 -58 43 -80 49 -45 13 -125 5 -138 -14 -4 -6 -6 -56 -3 -109 3 -54 1
-100 -4 -103 -19 -12 -33 -188 -34 -445 -1 -215 6 -304 26 -327 6 -7 8 -13 4
-13 -3 0 -1 -11 4 -25 5 -14 12 -37 14 -52 3 -14 9 -29 13 -32 4 -3 15 -19 23
-36 20 -40 80 -105 97 -105 26 0 93 35 99 52 3 10 12 18 20 18 8 0 17 13 21
30 3 17 11 30 18 30 7 0 21 12 31 26 10 15 29 39 41 54 13 15 24 37 26 48 2
11 8 27 15 34 6 8 9 18 5 21 -3 4 1 7 10 7 10 0 17 8 17 17 0 9 7 24 16 34 8
9 16 26 17 37 0 11 6 20 11 19 6 -1 10 3 11 8 0 6 6 20 13 32 7 12 12 26 11
30 -3 20 2 33 14 30 8 -1 14 -40 18 -132 7 -144 18 -235 28 -235 4 0 7 -8 8
-18 2 -27 39 -87 52 -85 6 2 10 -3 8 -10 -1 -6 3 -11 10 -10 6 1 17 -4 23 -12
16 -19 30 -19 30 0 0 10 10 15 30 15 25 0 30 4 30 23 0 13 4 27 10 33 5 5 11
30 14 54 2 25 7 63 11 84 4 21 9 105 9 185 1 80 6 165 10 187 8 41 9 41 27 23
10 -10 19 -27 19 -37 0 -26 39 -126 50 -130 6 -2 10 -13 10 -24 0 -19 34 -76
53 -89 5 -3 8 -9 8 -13 -2 -17 0 -24 17 -42 9 -10 28 -36 42 -56 14 -21 28
-38 33 -38 4 0 7 -7 7 -15 0 -9 10 -19 23 -24 12 -5 30 -18 41 -29 24 -28 91
-62 119 -62 12 0 28 -4 36 -9 9 -6 25 -5 40 1 14 5 38 11 53 13 15 2 40 10 55
18 28 15 70 55 66 63 -11 16 2 32 28 38 17 3 28 10 25 15 -3 5 3 11 14 14 17
4 21 13 20 42 -1 11 25 33 33 28 4 -2 7 1 7 7 0 6 7 18 15 27 8 8 13 18 10 23
-6 9 20 21 29 13 3 -4 6 -42 6 -85 0 -43 4 -78 8 -78 4 0 9 -14 10 -32 2 -18
11 -42 22 -53 10 -11 19 -24 20 -30 1 -22 12 -45 20 -45 5 0 12 -9 15 -20 3
-11 12 -20 19 -20 7 0 23 -10 36 -22 19 -17 37 -23 89 -24 36 -2 70 1 76 5 5
5 22 11 38 15 15 3 27 13 27 21 0 8 8 15 18 15 9 0 26 11 36 25 10 14 34 35
53 46 18 11 31 24 28 29 -3 4 2 13 10 20 8 7 12 16 9 21 -3 5 0 8 6 7 6 -2 22
17 36 42 13 25 24 40 24 35 0 -12 36 49 57 97 9 21 20 35 24 32 8 -4 13 16 11
37 -1 4 10 17 23 29 l25 23 1 -24 c0 -13 1 -89 2 -168 2 -104 6 -146 15 -149
7 -2 10 -8 6 -13 -3 -5 2 -23 10 -41 9 -17 16 -35 16 -40 0 -5 7 -16 16 -25
20 -20 155 -24 162 -5 2 6 11 12 19 12 9 0 13 6 10 14 -3 8 5 19 19 26 13 8
24 17 24 21 0 4 21 28 48 55 50 51 55 58 98 146 16 31 31 55 35 52 4 -2 11 6
14 18 4 13 17 33 28 46 11 12 18 22 14 22 -6 0 9 31 36 71 9 14 18 37 19 51 1
15 6 25 10 22 4 -2 11 3 16 12 6 12 11 -33 15 -137 10 -259 12 -273 42 -344 7
-16 17 -42 23 -57 7 -16 18 -28 26 -28 7 0 19 -7 26 -15 14 -17 66 -20 75 -4
4 5 18 14 30 19 17 7 26 20 30 47 3 21 10 48 15 60 5 12 10 107 11 210 1 190
18 332 41 361 7 8 12 18 11 21 -2 10 39 95 49 102 5 3 9 9 9 13 -3 22 1 36 15
50 8 9 16 25 17 35 0 11 6 19 11 18 6 -1 10 4 11 10 0 20 63 72 82 68 10 -2
21 -4 26 -4 4 -1 7 -8 7 -16 0 -8 5 -15 10 -15 6 0 15 -12 21 -27 5 -16 12
-35 16 -43 6 -15 8 -29 21 -130 9 -69 8 -239 -3 -433 -8 -145 -4 -183 26 -252
5 -11 13 -33 19 -48 5 -16 14 -25 20 -22 5 3 10 0 10 -7 0 -9 14 -14 40 -15
25 -1 40 3 40 10 0 8 3 8 9 -1 9 -14 61 -7 61 9 0 5 7 9 15 9 9 0 15 9 15 24
0 12 4 36 9 52 6 16 12 133 14 260 3 145 9 240 16 253 9 16 9 21 -1 21 -9 0
-10 3 -2 8 12 8 44 72 48 94 1 7 6 20 11 28 5 8 11 26 13 40 1 14 9 30 17 36
8 6 15 16 15 21 0 5 9 18 20 28 11 10 20 22 20 27 0 17 54 87 70 91 17 4 70
-23 70 -36 0 -4 4 -6 9 -3 20 13 25 -78 25 -461 1 -308 4 -405 14 -414 6 -7
12 -23 12 -36 0 -23 49 -88 58 -78 3 3 16 -2 29 -11 31 -20 56 -16 118 19 28
15 58 31 68 34 9 3 17 10 17 17 0 6 20 32 45 59 25 26 47 58 51 71 3 14 12 27
20 30 8 3 14 12 14 20 0 7 7 17 16 20 8 3 13 10 10 15 -3 4 3 16 14 26 11 10
20 26 20 36 0 10 6 22 13 26 6 4 21 26 32 48 11 22 28 49 38 59 15 17 18 25
17 51 0 3 11 27 24 54 14 27 22 51 19 55 -4 3 -1 6 5 6 8 0 12 -22 12 -66 0
-36 3 -63 8 -61 4 3 8 -14 9 -36 3 -79 10 -162 16 -187 34 -139 47 -170 90
-210 35 -33 62 -37 92 -17 40 27 82 36 119 25 22 -7 32 -16 29 -24 -5 -15 -6
-15 127 -20 61 -2 77 1 90 15 13 16 53 23 158 31 1 0 2 9 2 21 0 12 4 17 11
13 24 -14 99 38 99 70 0 15 3 17 12 8 20 -20 35 -14 46 18 6 16 22 35 36 41
13 6 27 20 29 31 3 10 11 17 18 16 7 -2 17 6 23 17 6 12 21 31 33 44 12 13 20
28 17 33 -3 5 -2 8 3 7 21 -4 33 2 33 15 0 8 9 21 19 28 11 8 21 20 23 28 4
20 38 51 49 45 4 -3 7 -14 6 -25 -1 -10 -5 -16 -11 -13 -5 4 -6 -26 -2 -78 13
-161 17 -194 27 -200 6 -3 10 -9 10 -13 -4 -28 4 -49 37 -94 20 -28 42 -52 48
-52 6 0 17 -7 24 -15 7 -9 15 -13 18 -10 3 3 12 -1 20 -7 20 -17 164 -17 170
0 2 6 8 10 13 6 5 -3 12 2 15 10 3 9 13 16 20 16 8 0 20 11 26 25 6 13 19 27
30 31 10 3 16 9 13 14 -3 5 4 11 15 15 11 3 20 12 20 19 0 8 7 19 15 26 8 6
13 15 12 20 -1 4 7 16 19 26 33 31 74 90 74 107 0 9 9 22 20 29 11 7 20 20 20
30 0 9 3 18 8 20 4 2 16 21 27 42 11 22 25 38 30 38 6 -1 11 -40 12 -89 2 -97
9 -203 18 -246 7 -35 42 -97 67 -119 21 -18 73 -17 108 2 10 6 28 10 39 10 12
0 21 6 21 13 0 8 22 36 50 63 27 27 50 58 50 68 0 11 3 17 6 13 6 -6 64 55 64
69 0 5 9 20 20 34 11 14 20 33 20 43 0 9 6 17 13 17 7 0 18 12 24 28 7 15 24
47 38 71 15 25 28 52 30 60 2 9 24 56 49 105 53 102 63 140 42 161 -8 8 -17
15 -20 15 -5 0 -29 -51 -37 -78 -2 -4 -9 -13 -16 -20 -7 -8 -11 -18 -8 -23 4
-5 1 -9 -4 -9 -6 0 -11 -6 -11 -14 0 -16 -60 -136 -78 -154 -7 -8 -10 -18 -7
-23 4 -5 1 -9 -4 -9 -6 0 -11 -7 -11 -15 0 -8 -4 -15 -10 -15 -5 0 -10 -7 -10
-15 0 -8 -4 -15 -10 -15 -5 0 -10 -7 -10 -16 0 -9 -9 -25 -21 -34 -11 -10 -21
-27 -22 -38 0 -12 -5 -19 -9 -16 -4 3 -14 -6 -23 -20 -22 -33 -44 -40 -66 -20
-16 15 -19 32 -19 123 0 58 5 124 10 146 5 22 12 65 16 95 3 30 12 86 20 124
11 50 11 71 3 76 -6 4 -10 11 -8 16 1 5 -15 19 -36 31 -42 23 -46 22 -138 -20
-33 -15 -49 -30 -54 -47 -3 -14 -13 -32 -23 -41 -17 -17 -66 -111 -72 -139 -2
-8 -9 -21 -16 -28 -7 -8 -10 -17 -7 -21 2 -5 -4 -16 -15 -26 -11 -10 -20 -24
-20 -32 0 -7 -4 -13 -10 -13 -5 0 -10 -6 -10 -14 0 -21 -37 -87 -82 -146 -21
-28 -38 -54 -38 -59 0 -4 -9 -16 -20 -26 -11 -10 -20 -25 -20 -33 0 -9 -3 -12
-7 -9 -3 4 -14 0 -24 -9 -23 -21 -63 -21 -84 0 -9 9 -14 16 -11 16 3 0 1 12
-5 26 -5 15 -12 43 -15 63 -3 20 -7 44 -10 54 -3 9 0 17 6 17 6 0 9 4 5 9 -3
5 -1 12 4 15 5 3 12 31 16 61 3 30 10 55 14 55 4 0 8 14 9 31 1 17 12 49 25
72 12 23 22 47 22 52 2 25 17 54 30 59 8 3 15 17 15 31 0 17 7 29 23 35 12 5
19 9 15 9 -4 1 12 22 35 47 23 26 40 52 39 58 -2 6 0 8 4 4 7 -8 44 28 44 42
0 4 9 10 21 13 12 3 18 10 14 16 -3 6 4 15 17 20 13 5 33 19 46 30 12 12 22
19 22 16 0 -3 10 4 23 15 12 12 38 30 57 40 19 10 42 28 50 39 8 12 22 21 32
21 10 0 18 4 18 9 0 5 9 13 20 16 15 5 20 14 18 36 -1 17 -6 33 -10 35 -4 3
-8 14 -8 25 0 24 -72 103 -112 123 -41 21 -181 16 -230 -8 -20 -9 -43 -19 -51
-20 -8 -1 -22 -8 -31 -15 -9 -7 -16 -10 -16 -5 0 5 -6 1 -14 -8 -7 -10 -25
-22 -40 -28 -15 -5 -24 -14 -21 -20 3 -6 -4 -14 -17 -19 -25 -9 -135 -130
-130 -143 1 -4 -1 -7 -5 -6 -5 2 -9 0 -10 -5 -2 -4 -21 -32 -43 -63 -23 -30
-42 -63 -43 -74 -1 -10 -6 -18 -11 -17 -6 1 -10 -2 -11 -8 0 -5 -15 -39 -31
-75 -31 -64 -40 -85 -43 -105 -2 -5 -10 -18 -18 -27 -9 -10 -12 -18 -7 -18 5
0 -1 -8 -14 -18 -13 -10 -24 -25 -26 -34 -1 -9 -8 -23 -15 -32 -7 -9 -10 -16
-5 -16 4 0 -3 -12 -17 -27 -14 -16 -38 -48 -55 -73 -16 -25 -32 -46 -36 -48
-5 -2 -8 -10 -8 -17 0 -7 -3 -15 -8 -17 -10 -4 -82 -94 -79 -99 1 -2 0 -3 -2
-2 -2 2 -10 -2 -18 -9 -12 -9 -13 -6 -7 18 22 102 26 407 5 464 -5 14 -12 34
-17 45 -4 11 -9 31 -11 45 -5 32 -63 150 -74 150 -5 0 -9 7 -9 16 0 8 -4 12
-10 9 -5 -3 -10 1 -10 10 0 8 -8 19 -17 22 -23 8 -77 46 -81 56 -5 10 -150 9
-156 -2 -4 -5 -14 -8 -24 -6 -9 1 -25 -5 -36 -14 -10 -9 -20 -15 -22 -13 -12
7 -34 0 -31 -10 1 -6 -7 -14 -18 -16 -11 -2 -24 -10 -28 -18 -4 -8 -15 -14
-23 -14 -9 0 -33 -18 -54 -40 -21 -22 -43 -40 -48 -40 -14 0 -24 29 -15 43 4
7 9 57 10 112 2 55 6 127 9 160 3 33 8 194 10 357 5 236 3 304 -8 328 -7 16
-16 30 -20 30 -5 0 -8 11 -8 24 0 17 -10 28 -36 41 -39 18 -98 27 -126 19z
m468 -1085 c11 -11 24 -16 29 -12 4 5 5 3 2 -3 -3 -6 1 -23 9 -38 7 -16 14
-39 14 -52 0 -12 4 -25 9 -28 16 -10 34 -293 20 -332 -4 -11 -9 -52 -10 -90
-2 -40 -10 -79 -19 -94 -8 -13 -14 -27 -14 -30 1 -3 0 -9 -2 -15 -2 -5 -5 -21
-7 -35 -2 -14 -12 -41 -22 -60 -11 -19 -19 -38 -20 -42 0 -4 -7 -16 -15 -26
-8 -10 -20 -27 -25 -37 -6 -10 -15 -17 -20 -17 -6 0 -15 -4 -22 -9 -18 -16
-94 -18 -129 -3 -17 7 -35 10 -39 6 -3 -4 -5 -2 -3 5 2 6 -1 10 -6 10 -26 -5
-33 78 -34 398 l-2 330 23 25 c13 14 26 33 30 43 4 10 11 15 17 12 5 -3 10 1
10 10 0 9 4 14 10 10 5 -3 16 7 24 22 8 15 15 25 16 20 0 -4 14 5 31 20 17 16
38 31 46 34 26 9 77 -2 99 -22z"/>
<path d="M14783 13372 c-39 -6 -57 -61 -50 -155 4 -45 11 -99 17 -119 13 -46
69 -91 110 -90 37 1 123 39 116 51 -3 5 1 14 8 21 27 21 36 102 15 125 -5 5
-9 16 -9 25 -1 19 -53 78 -103 114 -38 28 -63 35 -104 28z"/>
<path d="M9350 12889 c-14 -4 -37 -11 -51 -13 -14 -3 -36 -15 -49 -26 -13 -11
-29 -19 -36 -16 -6 2 -22 -6 -34 -19 -13 -14 -27 -22 -31 -19 -5 3 -24 -11
-43 -31 -19 -19 -39 -35 -46 -35 -6 0 -9 -4 -6 -8 3 -5 -10 -24 -29 -42 -19
-18 -31 -38 -28 -44 3 -6 3 -8 -2 -4 -9 9 -38 -19 -42 -41 -1 -8 -9 -21 -17
-27 -9 -6 -16 -16 -16 -21 0 -5 -9 -18 -19 -27 -11 -10 -22 -28 -25 -42 -4
-13 -11 -24 -17 -24 -6 0 -7 -4 -4 -10 7 -12 -25 -70 -39 -70 -5 0 -7 -3 -4
-6 4 -3 0 -17 -7 -31 -8 -15 -12 -30 -9 -35 3 -4 0 -8 -5 -8 -6 0 -11 -9 -11
-19 0 -11 -4 -23 -10 -26 -5 -3 -10 -15 -10 -26 0 -10 -4 -27 -9 -37 -15 -27
-52 -183 -58 -248 -11 -106 -1 -274 16 -274 4 0 13 -21 20 -46 8 -25 19 -48
27 -51 7 -2 20 -20 29 -40 9 -19 19 -32 22 -30 3 3 21 -4 41 -16 29 -17 54
-21 112 -21 65 -1 80 3 115 27 22 15 45 27 52 27 7 0 13 7 13 15 0 8 5 14 12
12 6 -1 17 8 23 21 7 13 26 39 43 58 17 19 31 37 30 40 0 3 9 17 21 30 11 13
18 24 13 24 -4 0 -2 4 3 8 6 4 16 18 23 32 15 32 35 64 44 70 3 3 8 12 10 20
2 8 10 22 18 30 8 8 24 32 35 53 l20 38 5 -163 c5 -128 10 -174 25 -215 23
-61 51 -97 67 -87 7 4 8 3 4 -4 -4 -7 -4 -13 1 -13 49 -7 69 -6 87 4 12 6 24
10 28 9 3 -1 28 20 55 47 26 27 58 53 70 60 12 6 24 23 27 39 4 15 20 36 36
47 16 10 28 22 28 25 -2 12 21 57 36 69 9 7 16 18 16 23 0 5 7 16 15 25 8 8
12 19 9 25 -4 6 1 8 12 6 9 -1 18 -6 17 -10 0 -9 14 -100 23 -148 3 -19 9 -37
13 -40 5 -3 11 -17 15 -32 9 -40 98 -125 135 -130 17 -3 31 -1 31 4 0 5 21 6
46 2 39 -6 48 -3 70 17 14 13 26 22 27 21 10 -20 136 88 129 110 -1 5 2 7 8 3
5 -3 14 5 19 18 6 14 14 28 20 31 5 3 12 20 16 36 4 17 12 30 19 30 12 0 40
55 39 78 -1 7 1 11 4 8 6 -6 33 39 53 86 6 14 18 29 25 32 12 4 14 -44 17
-287 3 -337 3 -347 -23 -347 -14 0 -19 -7 -19 -25 0 -15 -6 -25 -14 -25 -14 0
-31 -28 -27 -45 2 -5 -1 -7 -5 -3 -11 11 -34 -12 -34 -34 0 -10 -7 -21 -15
-24 -8 -4 -13 -9 -10 -14 2 -4 -9 -20 -25 -35 -17 -16 -30 -34 -30 -41 0 -6
-7 -17 -15 -24 -8 -7 -12 -16 -9 -21 3 -5 1 -9 -4 -9 -6 0 -15 -13 -21 -30 -5
-16 -15 -30 -20 -30 -6 0 -11 -6 -11 -12 0 -20 -47 -108 -54 -101 -3 4 -7 -1
-7 -10 -2 -23 -3 -26 -27 -77 -12 -25 -22 -59 -22 -75 0 -20 -8 -36 -25 -49
-14 -11 -25 -29 -25 -42 0 -13 -4 -24 -10 -24 -5 0 -10 -11 -10 -25 0 -14 -4
-25 -10 -25 -5 0 -10 -12 -10 -26 0 -14 -4 -33 -9 -42 -5 -9 -12 -39 -15 -66
-4 -27 -10 -54 -13 -59 -11 -17 -5 -281 6 -285 6 -2 11 -14 11 -27 0 -13 5
-27 10 -30 6 -3 10 -15 10 -26 0 -10 4 -19 9 -19 4 0 12 -15 17 -32 6 -19 20
-38 34 -45 14 -7 21 -13 17 -13 -19 0 22 -28 58 -40 22 -7 44 -16 50 -21 14
-14 85 -10 130 7 22 8 49 17 59 19 11 3 23 10 26 16 4 6 10 10 14 10 13 -2 46
24 46 36 0 7 4 13 10 13 15 0 110 103 110 120 0 8 9 21 20 28 12 7 20 23 20
41 0 18 6 31 16 35 9 4 14 9 11 12 -3 4 2 23 13 44 10 20 21 48 23 61 2 13 7
32 11 41 4 9 8 22 10 30 1 7 4 18 8 23 3 6 7 28 9 50 1 22 6 45 11 51 5 6 9
29 11 52 1 22 5 38 10 35 4 -2 7 17 7 44 0 26 5 66 9 88 5 22 13 94 16 160 4
66 9 123 11 126 4 7 14 313 16 495 1 79 5 144 9 144 10 0 29 57 21 66 -4 4 -1
4 6 0 6 -4 12 -3 12 1 0 5 15 32 34 61 19 28 33 52 30 52 -3 0 5 15 18 33 13
17 23 35 23 38 0 3 8 13 18 23 15 16 22 36 18 59 0 4 5 6 11 5 8 -2 13 6 12
19 -1 13 2 21 6 18 8 -5 77 144 72 157 -1 4 4 8 12 8 8 0 13 8 11 18 -1 9 6
27 17 38 10 12 20 31 21 43 1 11 5 21 9 21 4 0 8 8 8 18 0 9 7 30 15 46 22 42
20 76 -5 76 -11 0 -23 -8 -26 -17 -3 -10 -10 -26 -15 -35 -5 -10 -9 -25 -9
-33 0 -8 -6 -14 -12 -13 -7 2 -12 -5 -10 -14 2 -10 -1 -18 -6 -18 -9 0 -38
-69 -34 -83 1 -5 -2 -6 -8 -2 -5 3 -11 -1 -11 -9 -3 -34 -23 -79 -43 -95 -9
-7 -16 -24 -16 -38 0 -14 -4 -21 -10 -18 -9 5 -15 -15 -11 -37 0 -5 -5 -8 -12
-8 -7 0 -13 -10 -14 -21 -1 -12 -9 -29 -17 -38 -9 -10 -16 -22 -16 -28 0 -6
-7 -14 -16 -17 -9 -4 -14 -9 -11 -12 3 -3 -5 -17 -19 -31 -13 -13 -21 -29 -18
-35 4 -7 2 -8 -4 -4 -7 4 -12 2 -12 -4 0 -6 -4 -9 -9 -6 -5 4 -10 86 -11 183
0 97 -3 180 -6 185 -5 7 -17 387 -15 456 0 12 -4 22 -10 22 -6 0 -9 6 -6 14 6
14 -30 51 -69 73 -13 7 -52 11 -91 10 -87 -3 -126 -27 -128 -78 -1 -19 -5
-110 -9 -204 -8 -178 -12 -231 -22 -247 -3 -5 -8 -24 -11 -41 -5 -36 -29 -93
-42 -102 -5 -3 -12 -18 -16 -34 -3 -16 -13 -35 -21 -42 -8 -6 -14 -20 -14 -29
0 -10 -3 -20 -7 -22 -5 -1 -16 -19 -25 -38 -59 -118 -140 -220 -174 -220 -28
0 -59 76 -70 165 -10 83 -1 484 12 538 4 18 8 39 9 47 1 8 4 26 8 40 15 59 16
194 2 227 -17 41 -67 93 -95 98 -11 2 -25 7 -30 10 -22 13 -92 13 -118 -1 -15
-8 -33 -14 -39 -14 -10 0 -13 -35 -14 -137 0 -76 -2 -147 -3 -158 -6 -44 -19
-172 -21 -205 -1 -19 -5 -60 -9 -90 -4 -30 -8 -76 -9 -102 -1 -31 -7 -48 -14
-48 -7 0 -13 -3 -12 -7 2 -16 -14 -53 -22 -53 -5 0 -9 -9 -9 -20 0 -11 -9 -28
-20 -37 -11 -10 -20 -23 -20 -29 0 -6 -7 -17 -15 -24 -8 -7 -12 -16 -9 -21 3
-5 -1 -12 -10 -15 -8 -3 -13 -14 -11 -25 2 -10 1 -18 -3 -16 -9 2 -61 -50 -55
-57 3 -2 -4 -9 -15 -15 -23 -12 -33 -3 -49 44 -10 29 -8 159 3 220 3 17 8 68
11 115 3 47 10 88 15 91 5 3 12 33 15 65 5 59 5 59 -31 85 -30 21 -45 25 -79
22 -23 -3 -46 -11 -50 -19 -4 -8 -13 -14 -19 -14 -17 0 -61 -50 -83 -95 -11
-22 -26 -44 -33 -48 -7 -5 -10 -12 -7 -18 4 -5 2 -9 -3 -9 -10 0 -36 -58 -33
-72 0 -5 -3 -8 -8 -8 -4 0 -16 -20 -25 -44 -9 -25 -24 -50 -32 -56 -7 -7 -14
-21 -14 -30 0 -10 -3 -20 -7 -22 -5 -1 -19 -23 -32 -48 -14 -25 -28 -47 -31
-50 -10 -8 -79 -107 -77 -111 1 -2 1 -3 -1 -3 -2 1 -15 -9 -29 -22 -17 -16
-38 -24 -62 -24 -39 0 -51 17 -66 90 -15 70 1 189 28 216 4 4 7 16 7 27 0 22
48 124 68 145 7 8 10 17 7 22 -3 4 2 13 10 20 8 7 15 18 15 26 0 7 8 20 17 30
9 9 19 26 20 36 2 11 19 36 38 55 19 19 35 39 35 44 0 5 4 9 9 9 6 0 33 25 62
55 28 30 54 53 58 52 3 -1 20 11 36 26 17 16 41 33 53 38 13 5 26 18 29 29 4
15 14 20 40 20 45 0 103 60 103 105 -2 79 -52 154 -120 179 -48 17 -157 20
-200 5z m1338 -1681 c15 -15 16 -32 2 -23 -6 4 -10 -26 -11 -82 -1 -95 -1
-105 -15 -233 -10 -102 -9 -91 -19 -165 -12 -96 -19 -126 -51 -228 -13 -43
-21 -83 -18 -89 4 -7 2 -8 -4 -4 -8 4 -12 0 -12 -12 0 -10 -11 -40 -24 -68
-13 -27 -27 -60 -31 -74 -4 -14 -14 -33 -23 -42 -8 -10 -11 -18 -7 -18 5 0 0
-10 -11 -22 -11 -13 -25 -34 -31 -48 -6 -15 -31 -36 -58 -50 -38 -20 -50 -22
-63 -12 -9 7 -25 15 -34 18 -10 4 -18 16 -18 30 0 12 -4 25 -9 29 -5 3 -10 61
-10 130 0 69 5 127 10 130 5 4 9 21 9 38 1 33 18 102 37 147 6 14 8 29 5 34
-3 5 0 6 6 2 7 -4 12 -1 12 8 0 25 1 30 10 41 4 6 11 27 15 48 4 20 11 40 16
43 5 3 9 14 9 25 0 27 29 81 39 75 5 -3 14 14 21 39 7 25 16 42 21 39 5 -3 9
1 9 9 0 8 7 20 15 27 9 7 13 15 10 18 -3 3 1 12 9 21 8 9 14 18 14 21 0 17 28
61 44 66 10 3 16 9 13 13 -2 5 4 16 15 26 11 10 20 22 20 27 0 9 62 78 71 78
3 0 10 -5 17 -12z"/>
<path d="M5060 12844 c0 -9 -11 -14 -30 -14 -24 0 -31 -5 -36 -26 -4 -14 -9
-22 -13 -16 -9 14 -39 11 -45 -5 -3 -7 -12 -13 -21 -13 -8 0 -15 -7 -15 -15 0
-8 -7 -15 -16 -15 -9 0 -21 -13 -27 -30 -7 -18 -19 -30 -29 -30 -10 0 -18 -6
-18 -14 0 -7 -7 -19 -15 -26 -8 -7 -12 -16 -9 -21 3 -5 0 -8 -8 -7 -7 2 -14
-8 -16 -22 -2 -14 -12 -34 -21 -45 -15 -17 -71 -127 -101 -200 -6 -16 -30
-100 -36 -125 -14 -70 -18 -86 -25 -90 -4 -3 -9 -17 -11 -30 -2 -14 -12 -40
-21 -57 -10 -18 -16 -35 -15 -37 2 -2 -4 -12 -13 -22 -9 -11 -19 -31 -23 -46
-3 -16 -11 -28 -16 -28 -6 0 -10 -9 -10 -19 0 -10 -7 -22 -16 -25 -8 -3 -12
-10 -9 -16 3 -5 2 -10 -3 -10 -5 0 -17 -15 -26 -32 -8 -18 -24 -46 -35 -62
-11 -17 -17 -34 -14 -39 3 -6 2 -7 -4 -4 -6 4 -21 -5 -33 -18 -14 -15 -35 -25
-50 -25 -24 0 -28 5 -35 43 -10 51 -10 85 -2 157 4 30 9 109 12 174 4 66 9
124 11 128 7 10 19 211 19 298 0 66 -11 146 -23 165 -4 5 -7 13 -7 17 0 3 -10
18 -22 31 -12 14 -19 28 -16 31 4 3 0 6 -7 6 -7 0 -21 6 -29 14 -50 44 -170
31 -224 -24 -16 -17 -32 -28 -36 -25 -4 2 -14 -5 -22 -16 -8 -12 -24 -31 -36
-45 -12 -13 -24 -33 -28 -44 -4 -11 -10 -18 -14 -16 -4 3 -14 -11 -21 -30 -8
-19 -22 -42 -32 -51 -10 -9 -18 -24 -18 -35 0 -10 -4 -18 -8 -18 -5 0 -14 -16
-22 -35 -8 -19 -17 -35 -22 -35 -4 0 -8 -7 -8 -15 0 -8 -4 -15 -9 -15 -4 0 -9
88 -9 195 -1 120 -6 204 -13 216 -6 12 -8 23 -6 25 8 9 -37 51 -63 59 -14 4
-29 11 -35 15 -22 18 -86 3 -115 -26 -27 -27 -30 -37 -35 -124 -9 -127 -16
-448 -18 -757 -1 -138 -5 -254 -8 -258 -4 -3 -6 2 -6 12 0 10 -1 151 -2 313
-2 280 -10 340 -25 186 -3 -38 -10 -74 -13 -80 -4 -6 -8 -191 -10 -411 -2
-347 0 -420 17 -555 27 -209 26 -241 -5 -278 -39 -46 -119 -60 -156 -26 -21
19 -36 60 -44 124 -22 178 -80 500 -89 500 -20 0 -77 -111 -78 -150 0 -19 12
-91 27 -160 91 -434 92 -444 45 -575 -66 -184 -70 -228 -33 -370 33 -123 76
-174 186 -220 108 -45 138 -86 197 -275 18 -57 53 -147 77 -199 43 -91 45 -98
39 -158 -4 -35 -11 -75 -16 -89 -15 -39 -12 -193 5 -249 17 -57 46 -115 57
-115 5 0 8 -6 8 -14 0 -33 160 -150 221 -161 50 -10 70 -38 173 -247 142 -290
148 -309 151 -488 2 -126 5 -150 24 -187 27 -54 78 -105 139 -140 27 -16 64
-46 84 -68 32 -36 138 -207 138 -223 0 -3 6 -13 13 -21 8 -9 37 -60 66 -115
59 -113 86 -153 188 -286 91 -119 101 -130 140 -158 38 -27 53 -28 53 -4 0 36
-49 121 -124 212 -42 52 -90 124 -107 160 -17 36 -56 103 -86 149 -65 100
-103 180 -103 215 0 21 5 26 25 26 25 0 73 -53 98 -110 7 -14 14 -27 17 -30 4
-3 55 -69 114 -148 60 -78 114 -146 120 -150 6 -4 24 -23 40 -42 95 -118 324
-356 338 -352 5 1 7 -1 4 -6 -4 -7 332 -342 408 -407 6 -5 39 -35 72 -65 64
-59 167 -149 224 -196 19 -16 40 -33 46 -39 33 -31 257 -207 309 -243 27 -20
55 -40 60 -46 11 -12 109 -83 190 -137 28 -18 52 -35 55 -39 7 -7 123 -84 135
-89 6 -2 21 -12 35 -21 48 -34 243 -151 254 -153 6 -1 15 -7 21 -14 5 -6 28
-22 50 -34 22 -12 76 -42 120 -67 44 -24 121 -69 172 -98 50 -30 94 -54 97
-54 3 0 27 -14 53 -30 26 -17 55 -30 64 -30 9 0 19 -6 22 -13 3 -7 33 -28 68
-46 35 -18 122 -66 194 -106 71 -39 166 -90 210 -112 44 -22 121 -60 170 -85
78 -39 192 -92 340 -158 22 -9 81 -32 130 -50 50 -18 135 -50 189 -71 55 -22
105 -39 111 -39 6 0 29 -8 51 -19 21 -10 109 -37 194 -61 85 -23 218 -63 295
-87 77 -25 150 -47 161 -49 12 -2 53 -14 90 -26 83 -26 68 -23 134 -32 50 -8
183 -49 255 -81 17 -7 66 -25 110 -40 71 -25 118 -39 225 -65 53 -13 240 -50
280 -56 19 -3 49 -8 65 -11 17 -3 39 -7 50 -9 11 -1 35 -5 53 -8 17 -3 47 -8
65 -11 17 -3 58 -10 89 -16 77 -14 96 -17 142 -23 21 -4 42 -8 46 -11 4 -2 32
-7 61 -11 30 -3 57 -8 60 -10 7 -4 121 -21 199 -30 25 -3 56 -7 70 -9 144 -26
786 -26 830 0 3 1 41 6 85 9 44 4 87 9 95 11 8 2 46 7 84 10 38 3 72 8 75 9 3
2 33 7 66 11 33 3 78 10 100 15 22 5 65 12 95 15 30 4 57 8 60 10 3 2 26 6 50
10 67 10 331 71 452 106 60 17 118 32 130 34 33 7 151 45 170 56 10 5 24 9 32
9 12 0 261 79 306 97 8 4 17 7 20 7 3 1 10 4 15 7 8 5 76 30 95 34 3 1 17 7
32 13 15 6 66 27 114 47 89 37 170 74 364 167 134 65 195 92 259 118 25 10 71
29 101 43 30 13 89 39 130 57 86 37 251 118 313 154 23 13 67 37 97 53 80 43
199 110 245 139 22 13 50 30 63 36 12 6 22 15 22 20 0 4 4 8 8 8 30 0 396 235
476 305 6 6 23 16 39 24 15 8 27 18 27 23 0 4 6 8 13 8 6 0 26 14 44 30 18 17
35 30 39 30 6 0 66 43 129 92 6 4 54 42 108 84 53 41 97 80 97 86 0 6 3 8 6 5
6 -6 101 69 144 113 8 8 52 46 97 84 45 38 83 71 85 75 2 3 34 33 73 66 119
102 162 143 374 355 112 113 238 246 279 295 41 50 84 101 95 115 37 43 101
122 127 156 28 38 167 211 235 294 55 67 111 147 232 334 171 265 203 316 203
326 0 5 4 10 8 10 5 0 15 12 23 28 8 15 16 29 19 32 13 13 60 91 60 100 0 5 4
10 9 10 5 0 13 9 16 21 4 11 26 53 49 92 36 61 170 330 196 392 4 11 15 36 24
56 9 20 49 123 90 229 41 106 81 199 88 206 24 22 55 26 73 7 30 -29 15 -120
-55 -323 -34 -101 -69 -194 -76 -209 -8 -14 -14 -30 -14 -35 0 -23 -161 -384
-265 -594 -63 -128 -115 -236 -117 -240 -1 -4 -6 -11 -10 -17 -5 -5 -46 -75
-92 -155 -111 -197 -182 -305 -406 -625 -88 -126 -248 -345 -277 -380 -5 -5
-42 -53 -83 -105 -41 -52 -77 -97 -80 -100 -3 -3 -37 -43 -75 -90 -79 -98
-196 -232 -237 -273 -15 -16 -28 -33 -28 -38 0 -12 -25 -39 -35 -39 -4 0 -32
-27 -63 -60 -120 -126 -140 -146 -178 -182 -21 -21 -43 -42 -49 -48 -5 -6 -28
-27 -49 -45 -21 -19 -64 -58 -95 -88 -31 -29 -108 -97 -171 -151 -63 -54 -126
-108 -140 -120 -80 -70 -353 -281 -435 -336 -27 -18 -52 -36 -55 -40 -3 -3
-26 -19 -52 -35 -27 -17 -48 -33 -48 -37 0 -5 -7 -8 -15 -8 -8 0 -15 -3 -15
-8 0 -4 -16 -16 -35 -26 -19 -10 -42 -26 -52 -35 -22 -20 -142 -101 -149 -101
-3 0 -31 -17 -62 -38 -31 -22 -120 -75 -197 -120 -199 -113 -215 -122 -360
-196 -72 -37 -131 -71 -133 -76 -2 -6 -10 -10 -19 -10 -8 0 -49 -16 -91 -36
-213 -101 -286 -134 -298 -134 -8 0 -14 -4 -14 -10 0 -5 -7 -10 -15 -10 -8 0
-23 -4 -33 -9 -48 -26 -163 -75 -307 -131 -88 -34 -169 -66 -180 -70 -165 -69
-715 -214 -1080 -284 -11 -2 -31 -7 -45 -10 -14 -3 -41 -8 -60 -11 -19 -2 -53
-9 -75 -14 -35 -8 -72 -15 -140 -25 -11 -2 -31 -6 -45 -9 -14 -3 -52 -9 -85
-12 -32 -4 -62 -8 -65 -10 -3 -2 -34 -6 -70 -10 -36 -4 -67 -8 -70 -10 -5 -3
-48 -8 -177 -21 -32 -3 -69 -7 -83 -9 -14 -2 -61 -7 -105 -11 -44 -3 -98 -7
-120 -10 -214 -19 -745 -24 -1150 -11 -248 9 -257 9 -485 33 -80 8 -294 41
-405 63 -143 27 -373 79 -451 101 -35 10 -64 16 -64 13 0 -3 -6 -1 -12 4 -13
10 -60 25 -89 28 -9 1 -21 5 -27 9 -9 5 -168 49 -226 61 -33 7 -219 65 -260
81 -56 22 -65 35 -71 110 -7 77 -49 181 -77 190 -10 3 -18 11 -18 18 0 14 -58
70 -110 107 -90 64 -177 78 -275 45 -80 -27 -127 -60 -194 -135 -74 -83 -95
-88 -176 -42 -27 15 -65 36 -84 47 -19 10 -40 22 -45 27 -98 69 -390 257 -401
257 -8 0 -15 4 -15 9 0 10 -42 36 -150 93 -333 178 -551 309 -594 357 -11 11
-25 21 -33 21 -7 0 -13 4 -13 8 0 12 -202 171 -302 239 -88 59 -145 105 -245
200 -100 94 -146 136 -192 173 -24 19 -51 43 -60 53 -9 11 -77 71 -151 135
-74 64 -151 132 -170 151 -19 18 -51 45 -70 60 -19 14 -44 34 -54 44 -11 9
-28 17 -39 17 -15 0 -18 -5 -13 -25 14 -55 94 -147 217 -249 19 -15 53 -46 76
-67 23 -21 43 -39 45 -39 2 0 63 -59 137 -130 74 -72 140 -130 147 -130 7 0
15 -8 19 -17 3 -10 35 -40 71 -68 36 -27 79 -62 97 -78 17 -15 70 -53 117 -84
47 -32 87 -60 90 -63 4 -5 219 -174 298 -234 14 -11 39 -32 56 -48 17 -15 36
-28 43 -28 7 0 13 -4 13 -9 0 -8 201 -143 285 -191 16 -10 118 -69 225 -132
107 -63 220 -128 250 -145 86 -48 289 -158 442 -240 92 -48 113 -76 105 -132
-6 -39 12 -129 34 -168 37 -67 87 -103 188 -138 36 -12 69 -23 74 -24 4 0 8
-1 10 -2 19 -6 52 -10 95 -12 76 -4 176 44 226 108 20 26 36 51 36 56 0 15 71
31 108 24 33 -6 192 -62 247 -86 21 -9 150 -49 175 -54 8 -2 16 -4 18 -5 1 -2
5 -3 10 -4 45 -12 100 -28 112 -33 8 -3 18 -5 22 -5 4 1 27 -4 50 -12 38 -12
89 -25 103 -27 2 0 19 -5 37 -10 33 -9 231 -55 278 -64 57 -11 158 -27 195
-31 22 -3 46 -7 53 -9 8 -3 37 -8 65 -10 29 -3 67 -8 86 -11 19 -3 53 -7 75
-10 23 -2 61 -7 86 -10 66 -8 124 -13 230 -19 52 -3 133 -9 180 -13 183 -15
940 -6 1170 13 30 3 82 7 115 9 33 3 60 5 60 6 0 1 20 3 45 4 25 2 90 9 145
15 55 6 120 14 145 17 62 6 122 15 205 28 41 7 185 28 212 31 11 2 29 5 40 9
10 3 36 8 58 11 23 3 50 7 60 9 11 3 65 14 120 25 195 39 389 84 480 111 17 5
44 12 61 14 47 8 331 91 474 138 119 39 260 96 470 188 52 23 100 43 105 44
14 4 46 16 70 27 11 4 43 17 71 28 80 31 140 58 259 118 61 31 124 63 140 71
17 9 33 20 36 25 3 5 9 8 13 7 23 -4 642 356 708 412 18 15 37 28 42 28 5 0
16 7 25 15 9 8 66 47 126 87 61 40 115 76 120 80 6 5 78 58 160 120 83 61 157
117 165 124 33 29 72 62 149 124 44 36 83 73 86 83 4 9 12 17 18 17 34 0 672
634 789 785 12 17 32 39 44 50 24 24 208 246 250 301 16 22 34 44 39 50 6 6
20 24 33 40 159 206 209 275 261 353 13 20 27 38 30 41 4 3 29 39 56 80 28 41
52 77 55 80 3 3 71 104 151 225 239 362 458 782 619 1190 35 88 69 174 75 190
30 74 76 216 90 278 19 86 50 159 78 186 22 19 84 50 117 56 45 9 154 68 189
102 50 51 102 132 131 208 29 76 33 230 8 285 -21 46 -105 160 -118 160 -19 0
-78 67 -84 97 -10 45 41 282 66 310 20 22 115 73 136 73 14 0 162 118 162 129
0 5 6 16 13 23 28 29 76 116 93 166 23 72 15 154 -22 221 -41 77 -124 155
-199 186 -41 18 -67 35 -74 51 -7 17 -9 100 -4 269 l6 245 -34 -11 c-19 -7
-40 -17 -47 -24 -14 -13 -32 -115 -57 -328 -14 -123 -24 -161 -44 -169 -24 -9
-120 -101 -114 -111 3 -5 1 -7 -4 -4 -16 10 -89 -79 -127 -155 -68 -133 -59
-255 28 -383 88 -130 87 -124 55 -230 -67 -219 -70 -226 -127 -270 -96 -72
-223 -199 -242 -240 -47 -105 -60 -290 -30 -418 28 -119 21 -147 -97 -411
-236 -528 -540 -1065 -816 -1446 -86 -118 -125 -168 -328 -415 -84 -103 -92
-112 -155 -180 -20 -22 -47 -54 -60 -71 -13 -17 -96 -105 -184 -195 -88 -90
-160 -168 -160 -172 0 -11 -26 -37 -37 -37 -4 0 -74 -65 -156 -143 -81 -78
-153 -146 -160 -152 -7 -5 -33 -28 -58 -50 -24 -22 -69 -60 -99 -85 -30 -25
-65 -55 -78 -67 -12 -13 -25 -23 -27 -23 -2 0 -51 -37 -108 -82 -114 -90 -134
-105 -217 -167 -30 -22 -60 -45 -67 -51 -7 -5 -16 -10 -22 -10 -5 0 -11 -4
-13 -8 -1 -5 -19 -20 -39 -33 -103 -68 -255 -174 -265 -184 -6 -6 -37 -26 -68
-45 -31 -19 -86 -54 -122 -77 -35 -24 -67 -43 -70 -43 -3 0 -18 -9 -33 -19
-27 -19 -252 -150 -341 -198 -25 -13 -90 -49 -145 -79 -134 -73 -720 -364
-734 -364 -6 0 -11 -4 -11 -10 0 -5 -6 -10 -14 -10 -7 0 -40 -12 -72 -26 -165
-73 -523 -213 -689 -268 -44 -15 -89 -31 -100 -36 -25 -11 -156 -50 -345 -102
-80 -22 -167 -46 -195 -54 -27 -8 -66 -16 -85 -19 -19 -2 -35 -4 -35 -5 0 -1
-7 -3 -15 -5 -8 -1 -40 -8 -70 -14 -30 -6 -66 -13 -80 -16 -14 -3 -36 -7 -50
-9 -14 -3 -43 -8 -65 -11 -22 -3 -51 -7 -65 -10 -25 -4 -34 -6 -176 -25 -44
-6 -90 -12 -102 -15 -11 -2 -56 -6 -99 -10 -43 -3 -109 -8 -148 -11 -38 -3
-86 -9 -105 -14 -80 -20 -146 -25 -355 -25 -191 0 -432 10 -483 20 -10 1 -57
6 -106 10 -49 4 -96 8 -105 10 -36 6 -87 15 -111 20 -14 3 -47 9 -75 15 -27 5
-59 11 -70 14 -11 2 -56 12 -100 21 -44 9 -89 19 -100 21 -11 3 -69 14 -130
25 -213 39 -388 77 -480 104 -27 8 -156 47 -285 86 -129 39 -244 72 -254 74
-10 3 -35 10 -55 17 -20 7 -38 13 -41 13 -50 11 -260 91 -342 131 -88 42 -21
40 177 -6 77 -17 154 -34 170 -36 17 -3 37 -7 45 -10 30 -11 156 -42 200 -49
25 -4 54 -9 65 -11 27 -6 72 -13 120 -18 22 -3 60 -8 85 -11 25 -2 63 -7 85
-10 69 -8 250 -23 375 -30 47 -3 103 -8 125 -11 22 -4 63 -8 90 -10 28 -2 68
-7 90 -10 57 -10 869 -10 935 0 30 4 107 9 170 11 63 2 136 8 161 14 25 6 81
13 125 16 95 7 174 15 194 20 8 2 40 7 70 10 30 3 62 8 70 10 8 2 35 7 60 10
25 3 52 8 60 10 8 2 29 7 45 9 17 3 57 13 90 22 33 8 69 17 80 20 11 2 31 6
45 9 48 10 75 15 120 21 25 3 99 23 165 44 66 22 138 44 160 49 22 6 90 24
150 41 61 18 115 33 120 34 15 3 187 57 210 66 11 4 73 24 137 44 64 20 154
54 200 75 93 43 121 53 160 56 15 1 46 13 70 25 94 49 122 62 132 64 26 5 106
47 106 56 0 6 7 10 16 10 15 0 44 13 264 118 52 25 97 46 100 47 11 1 355 177
360 184 3 3 40 23 83 44 42 21 77 42 77 46 0 3 12 12 28 19 15 7 36 18 47 25
11 6 38 23 60 36 109 66 405 265 405 272 0 5 5 9 11 9 14 0 191 126 234 167
17 15 53 44 80 62 28 19 52 38 55 41 5 5 82 68 120 97 27 21 272 225 289 241
10 10 53 49 97 87 182 162 569 550 674 675 46 55 61 72 133 151 72 80 94 105
138 166 24 32 46 60 50 63 3 3 32 41 65 85 32 44 61 82 65 85 3 3 34 48 70
100 35 52 66 97 70 100 12 11 69 102 69 110 0 4 4 10 9 12 10 3 148 219 158
246 4 9 9 19 13 22 13 10 110 174 110 186 0 7 4 14 8 16 19 7 252 438 252 464
0 7 4 14 8 16 19 7 198 409 311 698 40 102 77 194 82 205 6 12 11 27 12 35 2
8 5 20 9 25 8 14 89 238 127 355 73 224 154 597 210 960 39 254 55 395 48 413
-8 22 -67 49 -72 34 -2 -7 -8 -59 -15 -117 -44 -415 -90 -666 -177 -975 -41
-148 -133 -433 -154 -480 -4 -11 -36 -92 -69 -180 -107 -281 -180 -465 -210
-532 -17 -36 -30 -74 -30 -84 0 -11 -4 -19 -10 -19 -5 0 -10 -8 -10 -18 0 -10
-4 -22 -9 -28 -10 -11 -118 -243 -123 -264 -2 -8 -6 -17 -9 -20 -3 -3 -49 -92
-102 -197 -182 -366 -369 -663 -676 -1072 -117 -157 -305 -390 -368 -457 -26
-28 -80 -87 -119 -130 -161 -178 -294 -314 -465 -474 -168 -157 -194 -181
-319 -285 -126 -106 -125 -105 -190 -155 -24 -19 -51 -41 -58 -48 -8 -7 -48
-39 -89 -70 -41 -31 -94 -72 -116 -90 -23 -18 -78 -58 -122 -89 -44 -31 -81
-60 -83 -65 -2 -4 -8 -8 -13 -8 -5 0 -70 -40 -145 -90 -74 -49 -139 -90 -144
-90 -4 0 -10 -3 -12 -8 -2 -6 -64 -44 -233 -144 -16 -10 -41 -24 -55 -30 -14
-7 -27 -15 -30 -18 -3 -3 -39 -23 -80 -44 -41 -21 -82 -44 -90 -50 -27 -21
-590 -296 -606 -296 -2 0 -27 -11 -56 -24 -182 -83 -571 -228 -828 -309 -153
-48 -288 -89 -305 -93 -5 -1 -39 -10 -75 -19 -36 -9 -69 -18 -75 -20 -5 -1
-17 -5 -25 -8 -13 -4 -186 -47 -255 -62 -11 -2 -39 -9 -63 -15 -23 -5 -59 -13
-80 -16 -20 -3 -40 -8 -43 -10 -3 -2 -21 -6 -40 -9 -19 -3 -54 -10 -79 -15
-53 -11 -405 -70 -515 -85 -130 -19 -260 -35 -325 -40 -41 -4 -86 -8 -100 -11
-43 -6 -280 -17 -385 -17 -277 1 -789 27 -965 48 -19 3 -69 7 -110 10 -41 3
-84 8 -95 10 -11 2 -49 7 -85 10 -36 4 -105 14 -155 22 -49 9 -99 17 -111 18
-11 1 -24 4 -30 7 -10 6 -274 68 -314 73 -14 2 -26 4 -27 6 -3 2 -2 1 -58 14
-22 5 -42 9 -45 10 -3 1 -23 5 -45 9 -22 4 -54 12 -71 17 -33 10 -51 15 -124
30 -48 11 -58 13 -160 30 -75 13 -161 38 -240 69 -30 12 -145 52 -255 89 -195
66 -450 159 -510 186 -16 7 -58 25 -92 39 -90 37 -160 70 -310 142 -72 35
-136 64 -141 64 -6 0 -12 4 -14 8 -1 4 -34 25 -73 46 -169 93 -387 235 -501
328 -43 35 -108 86 -144 113 -72 55 -84 64 -145 115 -70 58 -249 204 -263 215
-8 5 -29 25 -48 43 -19 17 -37 32 -40 32 -3 0 -28 21 -56 48 -57 53 -56 52
-118 106 -131 114 -402 377 -532 517 -64 69 -154 168 -208 230 -30 34 -65 74
-78 88 -12 14 -48 58 -80 98 -31 39 -78 96 -104 126 -27 30 -48 59 -48 66 0 6
-3 11 -7 11 -5 0 -30 32 -58 71 -27 38 -71 99 -97 134 -27 35 -48 68 -48 74 0
5 -4 11 -8 13 -13 5 -162 246 -162 262 0 8 18 50 40 93 49 95 65 171 50 239
-11 49 -77 174 -92 174 -4 0 -8 6 -8 12 0 41 -225 201 -300 214 -87 15 -135
36 -160 71 -14 19 -33 44 -42 54 -10 10 -18 24 -18 29 0 6 -12 34 -26 62 -38
75 -62 153 -58 191 1 18 17 69 35 113 28 66 33 92 33 160 1 73 -3 88 -36 155
-50 102 -125 175 -235 230 -94 48 -113 67 -139 137 -10 26 -21 49 -25 52 -3 3
-9 19 -12 35 -3 17 -10 46 -15 65 -51 183 -62 233 -62 286 0 33 6 74 14 90 30
62 45 135 43 216 -3 126 -30 175 -175 311 -28 27 -57 64 -64 83 -6 19 -16 34
-21 34 -4 0 -5 4 -2 10 3 5 1 36 -4 67 -5 32 -13 87 -16 123 -3 36 -10 88 -15
115 -11 65 -24 184 -22 210 3 29 -9 42 -51 60 l-37 15 0 -82 c0 -50 8 -114 21
-163 56 -219 67 -337 33 -362 -34 -25 -57 21 -69 137 -3 30 -8 73 -11 95 -3
22 -7 90 -10 150 -3 61 -9 126 -14 145 -12 42 -13 263 -2 256 4 -2 9 -18 10
-35 2 -32 32 -92 57 -118 8 -7 35 -15 60 -17 37 -4 47 -1 55 15 6 10 17 19 25
19 12 0 22 18 29 54 13 61 17 103 20 246 3 91 5 198 5 238 1 57 4 72 16 72 8
0 16 7 16 15 1 8 3 18 4 23 12 35 17 52 15 58 -1 4 2 10 7 13 9 6 31 53 29 61
0 3 8 19 20 35 24 36 48 87 46 98 -1 4 5 7 14 7 8 0 13 4 10 9 -9 13 36 47 68
50 18 2 26 -1 22 -8 -4 -6 0 -11 9 -11 9 0 13 -4 10 -10 -3 -5 1 -10 9 -10 10
0 16 -9 16 -26 0 -14 4 -23 8 -20 10 6 10 8 12 -229 0 -104 -2 -201 -5 -215
-11 -40 -18 -327 -10 -347 5 -10 10 -31 12 -48 6 -42 28 -79 63 -108 24 -21
36 -24 53 -18 13 5 35 7 50 4 15 -3 27 -1 27 4 0 5 18 17 40 27 22 9 49 30 60
47 12 16 25 29 30 29 12 0 60 49 60 61 0 6 5 7 10 4 6 -3 10 0 10 7 0 8 9 20
20 28 11 8 20 22 20 31 0 9 7 22 15 29 9 7 23 28 31 46 9 19 20 34 25 34 5 0
9 7 9 15 0 8 5 15 10 15 6 0 10 11 10 24 0 13 7 30 16 37 14 11 18 10 30 -6 8
-10 14 -33 14 -51 0 -18 5 -36 10 -39 6 -3 10 -16 10 -29 0 -12 3 -26 8 -30 4
-4 7 -11 8 -14 4 -44 87 -153 136 -178 16 -8 26 -19 23 -24 -4 -6 5 -11 19
-11 38 -2 44 -3 52 -11 19 -20 204 6 204 28 0 7 16 16 35 20 19 3 35 10 35 15
0 5 7 9 16 9 8 0 12 5 9 10 -3 6 0 10 8 10 8 0 32 18 55 40 22 22 45 40 52 40
6 0 14 9 18 19 4 11 23 36 43 58 19 21 38 45 42 53 20 41 36 63 56 76 11 8 21
24 21 34 0 10 5 20 10 22 6 2 12 13 13 25 0 12 5 21 10 20 16 -3 18 44 3 59
-20 19 -36 18 -36 -3 0 -10 -11 -31 -25 -47 -13 -16 -22 -33 -19 -37 3 -5 -2
-12 -11 -15 -8 -4 -27 -26 -41 -50 -14 -24 -34 -46 -45 -49 -10 -4 -19 -10
-19 -14 0 -4 -10 -18 -22 -31 -13 -14 -22 -28 -20 -33 1 -5 -1 -6 -6 -3 -5 3
-24 -13 -42 -34 -19 -22 -41 -40 -50 -40 -9 0 -20 -3 -24 -7 -4 -4 -26 -14
-49 -23 -31 -12 -50 -14 -71 -7 -33 11 -66 37 -66 52 0 5 -7 23 -15 38 -11 21
-14 58 -12 145 2 65 6 122 10 128 3 6 9 39 13 74 7 64 20 90 46 90 8 0 18 4
23 9 6 6 21 11 35 13 14 2 35 9 48 16 12 7 22 10 22 6 0 -3 11 1 25 10 14 9
25 13 25 9 0 -4 13 5 28 20 16 15 31 25 34 22 2 -3 13 4 23 15 10 11 23 20 29
20 6 0 16 10 21 21 6 12 13 20 17 18 11 -7 52 64 68 116 21 72 18 182 -5 225
-11 19 -20 37 -20 40 -9 34 -49 83 -59 73 -3 -4 -6 0 -6 8 0 23 -87 52 -162
55 -52 1 -68 -1 -68 -12z m205 -154 c4 -6 11 -8 16 -4 5 3 8 0 7 -7 -2 -7 2
-13 9 -14 12 0 43 -25 32 -25 -3 0 0 -29 6 -65 7 -37 9 -68 4 -71 -5 -3 -9
-15 -9 -28 0 -13 -9 -31 -20 -41 -11 -10 -20 -23 -20 -30 0 -34 -179 -155
-230 -155 -9 0 -21 -5 -26 -10 -6 -6 -19 -8 -28 -4 -14 5 -17 15 -13 43 6 52
28 122 47 151 9 14 16 32 15 40 -1 8 5 23 13 33 8 9 11 17 7 17 -4 0 0 9 10
20 10 11 14 20 10 20 -5 0 1 9 13 20 12 12 22 26 22 33 1 17 55 74 77 80 32 8
52 7 58 -3z m-1537 -2678 c10 -10 28 -51 40 -92 13 -41 34 -105 48 -142 33
-87 34 -122 3 -147 -26 -22 -73 -35 -109 -29 -18 2 -29 18 -49 68 -14 36 -29
70 -32 75 -4 6 -12 43 -19 82 -15 85 -6 132 35 176 30 31 57 35 83 9z m-224
-94 c28 -43 67 -207 64 -267 l-3 -56 -17 35 c-16 35 -40 90 -43 100 0 3 -11
34 -22 70 -20 60 -27 96 -24 128 2 20 29 14 45 -10z m715 -1166 c14 -16 39
-53 55 -83 16 -30 33 -56 36 -59 14 -10 33 -107 27 -133 -9 -33 -102 -107
-135 -107 -40 0 -107 81 -163 199 -28 57 -48 109 -45 116 2 7 20 24 38 38 86
66 144 74 187 29z m609 -1086 c8 -5 276 -398 317 -465 6 -9 12 -18 15 -21 3
-3 16 -20 29 -38 13 -19 33 -43 45 -55 11 -12 30 -35 41 -51 25 -36 100 -130
139 -177 45 -52 139 -161 151 -173 6 -6 44 -49 85 -96 93 -105 87 -98 135
-151 23 -24 53 -61 69 -81 16 -21 33 -38 39 -38 13 0 47 -40 47 -57 0 -21 -9
-16 -54 32 -24 25 -50 45 -57 45 -12 0 -46 30 -103 90 -8 8 -51 49 -97 90
-104 92 -265 254 -384 384 -49 55 -124 133 -165 175 -41 42 -97 103 -125 136
-27 32 -60 70 -72 83 -13 12 -23 27 -23 32 0 5 -6 13 -13 17 -21 13 -115 145
-138 193 -26 54 -18 85 29 116 31 21 66 25 90 10z m1190 -1463 c8 -7 12 -18
10 -23 -5 -16 -50 13 -59 38 -8 21 -7 22 14 11 12 -7 28 -18 35 -26z"/>
<path d="M4973 6706 c-20 -24 40 -125 147 -246 17 -19 51 -66 77 -104 25 -38
57 -80 72 -94 26 -24 70 -46 78 -38 7 7 -83 179 -115 218 -16 21 -51 56 -77
77 -26 21 -61 63 -77 92 -29 52 -76 109 -87 109 -3 -1 -11 -7 -18 -14z"/>
<path d="M5360 6190 c0 -27 22 -50 47 -50 21 0 12 49 -12 64 -33 22 -35 21
-35 -14z"/>
<path d="M5436 6117 c7 -23 59 -77 74 -77 8 0 -2 49 -14 69 -3 5 -20 14 -37
20 -28 10 -30 9 -23 -12z"/>
<path d="M5540 5987 c0 -21 71 -132 115 -179 36 -39 81 -68 105 -68 17 0 -30
103 -68 150 -50 61 -54 66 -93 89 -39 24 -59 27 -59 8z"/>
</g>
</svg>
