<?xml version="1.0" encoding="utf-8"?>
<!-- Generator: Adobe Illustrator 25.0.0, SVG Export Plug-In . SVG Version: 6.00 Build 0)  -->
<svg version="1.1" id="Layer_1" xmlns="http://www.w3.org/2000/svg" xmlns:xlink="http://www.w3.org/1999/xlink" x="0px" y="0px"
	 viewBox="0 0 283.46 283.46" style="enable-background:new 0 0 283.46 283.46;" xml:space="preserve">
<style type="text/css">
	.st0{fill:#DF7142;}
	.st1{fill:#FFFFFF;}
	.st2{fill:#FFFFFF;stroke:#FFFFFF;stroke-miterlimit:10;}
</style>
<g>
	<path class="st0" d="M142.66-153.96L28.68-198.05c-3.5-1.36-3.55-6.92-0.06-8.35l111.22-45.46c0.87-0.35,1.82-0.35,2.68,0
		l112.34,46.11c3.48,1.43,3.43,6.99-0.07,8.35L142.66-153.96z"/>
	<g>
		<path class="st0" d="M141.73-142.35l74.04-28.71c2.7-1.05,5.51,1.21,5.51,4.43v60.63H62.19v-60.63c0-3.22,2.81-5.48,5.51-4.43
			L141.73-142.35"/>
		<ellipse class="st0" cx="141.72" cy="-105.99" rx="79.54" ry="23.95"/>
	</g>
	<path class="st0" d="M250.46-149.85h-6.06c-1.09,0-1.98-0.89-1.98-1.98v-29.75c0-1.09,0.89-1.98,1.98-1.98h6.06
		c1.09,0,1.98,0.89,1.98,1.98v29.75C252.44-150.74,251.56-149.85,250.46-149.85z"/>
	<path class="st0" d="M250.46-112.45h-6.05c-1.1,0-1.99-0.89-1.99-1.99v-29.73c0-1.1,0.89-1.99,1.99-1.99h6.05
		c1.1,0,1.99,0.89,1.99,1.99v29.73C252.44-113.34,251.55-112.45,250.46-112.45z"/>
	<path class="st0" d="M246.73-93.57l-5.68-6.4c-0.39-0.44-0.39-1.15,0-1.58l5.68-6.4c0.39-0.44,1.02-0.44,1.41,0l5.68,6.4
		c0.39,0.44,0.39,1.15,0,1.58l-5.68,6.4C247.75-93.13,247.12-93.13,246.73-93.57z"/>
</g>
<g>
	<g>
		<path class="st0" d="M515.03-89.71L337.44-209.23c-0.89-0.6-1.11-1.78-0.48-2.64l16.99-23.09c0.63-0.86,1.87-1.06,2.76-0.46
			L534.29-115.9c0.89,0.6,1.11,1.78,0.48,2.64l-16.99,23.09C517.16-89.32,515.92-89.11,515.03-89.71z"/>
		<path class="st1" d="M366.97-203.81l-1.81-1.22c-0.47-0.31-0.58-0.93-0.25-1.37l11.97-16.32c0.33-0.45,0.97-0.55,1.44-0.24
			l1.81,1.22c0.47,0.31,0.58,0.93,0.25,1.37l-11.97,16.32C368.08-203.61,367.44-203.5,366.97-203.81z"/>
		<path class="st1" d="M384.45-195.81l-1.81-1.22c-0.47-0.31-0.58-0.93-0.25-1.37l11.56-15.75c0.33-0.45,0.97-0.55,1.44-0.24
			l1.81,1.22c0.47,0.31,0.58,0.93,0.25,1.37l-11.56,15.75C385.56-195.61,384.91-195.5,384.45-195.81z"/>
		<path class="st1" d="M415.84-174.96l-1.81-1.22c-0.47-0.31-0.58-0.93-0.25-1.37l11.97-16.32c0.33-0.45,0.97-0.55,1.44-0.24
			l1.81,1.22c0.47,0.31,0.58,0.93,0.25,1.37l-11.97,16.32C416.95-174.76,416.3-174.65,415.84-174.96z"/>
		<path class="st1" d="M429.66-161.97l-1.81-1.22c-0.47-0.31-0.58-0.93-0.25-1.37l11.97-16.32c0.33-0.45,0.97-0.55,1.44-0.24
			l1.81,1.22c0.47,0.31,0.58,0.93,0.25,1.37l-11.97,16.32C430.77-161.77,430.13-161.66,429.66-161.97z"/>
		<path class="st1" d="M447.23-154.11l-1.81-1.22c-0.47-0.31-0.58-0.93-0.25-1.37l11.01-15.01c0.33-0.45,0.97-0.55,1.44-0.24
			l1.81,1.22c0.47,0.31,0.58,0.93,0.25,1.37l-11.01,15.01C448.34-153.9,447.7-153.8,447.23-154.11z"/>
		<path class="st1" d="M398.29-182.86l-1.81-1.22c-0.47-0.31-0.58-0.93-0.25-1.37l11.97-16.32c0.33-0.45,0.97-0.55,1.44-0.24
			l1.81,1.22c0.47,0.31,0.58,0.93,0.25,1.37l-11.97,16.32C399.4-182.65,398.76-182.54,398.29-182.86z"/>
		<path class="st1" d="M461.64-140.35l-1.81-1.22c-0.47-0.31-0.58-0.93-0.25-1.37l11.97-16.32c0.33-0.45,0.97-0.55,1.44-0.24
			l1.81,1.22c0.47,0.31,0.58,0.93,0.25,1.37l-11.97,16.32C462.75-140.14,462.1-140.04,461.64-140.35z"/>
		<path class="st1" d="M479.44-132.79l-1.81-1.22c-0.47-0.31-0.58-0.93-0.25-1.37l10.87-14.82c0.33-0.45,0.97-0.55,1.44-0.24
			l1.81,1.22c0.47,0.31,0.58,0.93,0.25,1.37l-10.87,14.82C480.55-132.59,479.9-132.48,479.44-132.79z"/>
		<path class="st1" d="M510.71-111.79l-1.81-1.22c-0.47-0.31-0.58-0.93-0.25-1.37l11.4-15.54c0.33-0.45,0.97-0.55,1.44-0.24
			l1.81,1.22c0.47,0.31,0.58,0.93,0.25,1.37l-11.4,15.54C511.82-111.58,511.18-111.48,510.71-111.79z"/>
		<path class="st1" d="M492.96-119.4l-1.81-1.22c-0.47-0.31-0.58-0.93-0.25-1.37l11.97-16.32c0.33-0.45,0.97-0.55,1.44-0.24
			l1.81,1.22c0.47,0.31,0.58,0.93,0.25,1.37l-11.97,16.32C494.07-119.19,493.42-119.08,492.96-119.4z"/>
	</g>
	<line class="st2" x1="428.11" y1="-65.76" x2="439.17" y2="-51.41"/>
	<g>
		<g>
			<polygon class="st0" points="527.58,-185.17 423.22,-111.51 397.18,-145.28 501.54,-218.93 			"/>
			<path class="st0" d="M551.36-201.95l-17.92,12.64l-26.05-33.76l17.91-12.64c0.7-0.5,1.69-0.35,2.21,0.32l24.17,31.33
				C552.21-203.39,552.06-202.44,551.36-201.95z"/>
			<path class="st0" d="M404.33-124.26l13.02,16.88l-27.01,6.02l-19.94,4.45c-2.67,0.6-4.79-2.15-3.41-4.41l10.33-16.91l13.98-22.9
				L404.33-124.26z"/>
		</g>
		<polygon class="st0" points="544.11,-175.54 533.02,-189.9 541.39,-195.81 552.48,-181.44 		"/>
		<path class="st0" d="M495.78-153.04l42.14-30.58l6.29,7.93l-42.13,30.58c-0.52,0.38-1.26,0.28-1.65-0.22l-4.87-6.14
			C495.17-151.97,495.27-152.67,495.78-153.04z"/>
	</g>
</g>
<g>
	<g>
		<polygon class="st0" points="142.19,164.29 71.87,148 80.94,116.16 151.27,132.45 		"/>
		<polygon class="st0" points="152.6,127.77 82.28,111.47 113.69,74.04 113.69,74.04 144.82,81.26 144.82,81.26 		"/>
		<path class="st0" d="M115.19,226.15l-52.74-12.22c-4.86-1.13-7.79-5.59-6.54-9.97l14.62-51.27l70.32,16.29l-14.62,51.29
			C124.98,224.64,120.04,227.27,115.19,226.15z"/>
		<path class="st0" d="M147.46,62.44l-26.01-6.03c-1.52-0.35-3.07,0.47-3.47,1.85l-3.15,11.05l31.51,7.3l3.15-11.06
			C149.9,64.18,148.98,62.79,147.46,62.44z"/>
	</g>
	<g>
		<path class="st0" d="M208.87,153.15c-5.16,0-9.99,1.73-14.16,4.73c-4.17-3-9-4.73-14.16-4.73c-15.64,0-28.32,15.78-28.32,35.24
			c0,19.46,12.68,35.24,28.32,35.24c5.16,0,9.99-1.73,14.16-4.73c4.17,3,9,4.73,14.16,4.73c15.64,0,28.32-15.78,28.32-35.24
			C237.18,168.93,224.51,153.15,208.87,153.15z"/>
		<path class="st0" d="M194.71,154.15c0,0-6.7-12.84,5.16-19.35c0.63-0.34,1.42-0.33,2.01,0.06l7.33,4.82
			c0.48,0.32,0.35,1-0.23,1.14C205.05,141.73,194.8,145,194.71,154.15z"/>
		<path class="st0" d="M190.13,151.54c0,0-24.8-3.8-23.1-27.43c0.07-1.03,1.16-1.74,2.26-1.47
			C175.01,124.08,190.53,129.97,190.13,151.54z"/>
	</g>
</g>
<g>
	<path class="st0" d="M514.14,219.6H362.22c-6.73,0-12.18-5.45-12.18-12.18v-89.33c0-6.73,5.45-12.18,12.18-12.18h151.92
		c6.73,0,12.18,5.45,12.18,12.18v89.33C526.32,214.14,520.87,219.6,514.14,219.6z"/>
	<path class="st1" d="M528.15,183.75h-62.53c-6.74,0-12.2-5.46-12.2-12.2v-17.6c0-6.74,5.46-12.2,12.2-12.2h62.53
		c6.74,0,12.2,5.46,12.2,12.2v17.6C540.35,178.29,534.89,183.75,528.15,183.75z"/>
	<path class="st0" d="M523.81,179.34h-53.86c-4.09,0-7.41-3.32-7.41-7.41v-18.37c0-4.09,3.32-7.41,7.41-7.41h53.86
		c4.09,0,7.41,3.32,7.41,7.41v18.37C531.22,176.03,527.9,179.34,523.81,179.34z"/>
	<path class="st1" d="M484.46,168.2h-5.58c-1.76,0-3.19-1.43-3.19-3.19v-4.52c0-1.76,1.43-3.19,3.19-3.19h5.58
		c1.76,0,3.19,1.43,3.19,3.19v4.52C487.65,166.78,486.22,168.2,484.46,168.2z"/>
	<path class="st0" d="M480.19,69.77c6.65-2.3,13.32-1.07,14.91,2.74l11.27,27.09l-116.47,1.36"/>
	<path class="st0" d="M436.12,52.85c4.4-3.54,9.93-4.39,12.34-1.9l17.15,17.71l-89.31,32.3"/>
</g>
</svg>
