<?xml version="1.0" encoding="utf-8"?>
<!-- Generator: Adobe Illustrator 25.0.0, SVG Export Plug-In . SVG Version: 6.00 Build 0)  -->
<svg version="1.1" id="Layer_1" xmlns="http://www.w3.org/2000/svg" xmlns:xlink="http://www.w3.org/1999/xlink" x="0px" y="0px"
	 viewBox="0 0 566.93 566.93" style="enable-background:new 0 0 566.93 566.93;" xml:space="preserve">
<style type="text/css">
	.st0{fill:#936037;stroke:#000000;stroke-width:2;stroke-miterlimit:10;}
	.st1{stroke:#000000;stroke-width:2;stroke-miterlimit:10;}
	.st2{fill:#E94D21;stroke:#000000;stroke-width:2;stroke-miterlimit:10;}
	.st3{fill:none;stroke:#2C2D84;stroke-miterlimit:10;}
	.st4{opacity:0.79;fill:none;stroke:#A86B2F;stroke-width:2;stroke-miterlimit:10;}
	.st5{fill:#E9C981;stroke:#000000;stroke-width:2;stroke-miterlimit:10;}
	.st6{fill:#E6F5FE;stroke:#000000;stroke-width:2;stroke-miterlimit:10;}
	.st7{fill:#2C2D84;}
	.st8{opacity:0.71;fill:#FFFFFF;}
	.st9{opacity:0.11;fill:#C0C0C0;}
</style>
<path class="st0" d="M343.59,250.34L343.59,250.34c0.6,1.45-0.08,3.11-1.53,3.71l-35.72,14.91c-0.93,0.39-2.01-0.05-2.4-0.98
	l-0.78-1.86c-0.39-0.93,0.05-2.01,0.98-2.4l35.72-14.91C341.33,248.21,342.99,248.9,343.59,250.34z"/>
<path class="st1" d="M271.7,377.7l-3.37-0.08c-0.63-0.02-1.11-0.44-1.07-0.94l2.72-32.59c0.04-0.5,0.59-0.9,1.22-0.88l3.37,0.08
	c0.63,0.02,1.11,0.44,1.07,0.94l-2.72,32.59C272.88,377.32,272.33,377.71,271.7,377.7z"/>
<path class="st1" d="M301.52,377.55l-3.36,0.17c-0.63,0.03-1.19-0.35-1.25-0.85l-4.13-32.54c-0.06-0.5,0.39-0.93,1.02-0.97
	l3.36-0.17c0.63-0.03,1.19,0.35,1.25,0.85l4.13,32.54C302.61,377.08,302.15,377.52,301.52,377.55z"/>
<path class="st2" d="M323.95,344.78h-78.93c-1.59,0-2.62-1.67-1.92-3.09l16.28-32.92h48.52l17.92,32.86
	C326.6,343.05,325.57,344.78,323.95,344.78z"/>
<circle class="st3" cx="296.61" cy="290.51" r="147.93"/>
<circle class="st3" cx="279.86" cy="281.89" r="147.93"/>
<circle class="st3" cx="296.61" cy="301.02" r="147.93"/>
<circle class="st0" cx="284.48" cy="236.66" r="22.19"/>
<circle class="st4" cx="284.48" cy="236.66" r="20.37"/>
<path class="st5" d="M307.9,308.77h-48.52v-40.35c0-3.43,2.78-6.21,6.21-6.21h36.09c3.43,0,6.21,2.78,6.21,6.21V308.77z"/>
<g>
	<g>
		<path class="st6" d="M332.23,336.5l-107.34-22.15c-3.73-0.77-6.13-4.42-5.36-8.15l9.05-43.85c0.77-3.73,4.42-6.13,8.15-5.36
			l107.34,22.15c3.73,0.77,6.13,4.42,5.36,8.15l-9.05,43.85C339.61,334.87,335.96,337.27,332.23,336.5z"/>
		<path class="st6" d="M290.35,268.26l55,11.35c1.23,0.25,1.37,1.84,0.21,2.23l-29.06,9.52l-26.55,8.7
			c-4.09,1.34-8.58,0.41-11.81-2.44l-20.94-18.5l-22.92-20.25c-0.92-0.81-0.16-2.22,1.07-1.96L290.35,268.26z"/>
	</g>
</g>
<path class="st0" d="M262.08,305.5L262.08,305.5c-1.57,0-2.84-1.27-2.84-2.84v-38.71c0-1.01,0.82-1.83,1.83-1.83h2.01
	c1.01,0,1.83,0.82,1.83,1.83v38.71C264.92,304.23,263.65,305.5,262.08,305.5z"/>
<path class="st1" d="M256.03,374.35L256.03,374.35c0-1.85,1.5-3.35,3.35-3.35h10.53c1.5,0,2.72,1.22,2.72,2.72v1.27
	c0,1.5-1.22,2.72-2.72,2.72h-10.53C257.53,377.7,256.03,376.2,256.03,374.35z"/>
<path class="st1" d="M296.84,374.35L296.84,374.35c0-1.85,1.5-3.35,3.35-3.35h10.53c1.5,0,2.72,1.22,2.72,2.72v1.27
	c0,1.5-1.22,2.72-2.72,2.72h-10.53C298.34,377.7,296.84,376.2,296.84,374.35z"/>
<path class="st1" d="M269.44,219.81c0,0-14.51-1.68-14.6,11.84C254.84,231.65,265.51,235.94,269.44,219.81z"/>
<path class="st1" d="M255.21,232.11c0,0-12.75,7.12-4.96,18.16C250.25,250.27,261.41,247.52,255.21,232.11z"/>
<path class="st1" d="M250.91,250.22c0,0-10.93,9.68-0.96,18.8C249.96,269.02,260.27,263.94,250.91,250.22z"/>
<path class="st1" d="M295.94,216.45c0,0,12.14-7.5,17.65,4.78C313.59,221.23,305.88,229.53,295.94,216.45z"/>
<path class="st1" d="M313.36,221.51c0,0,12.67,6.56,5.62,17.93C318.98,239.44,308.04,237.17,313.36,221.51z"/>
<path class="st1" d="M319.4,240.03c0,0,12.2,7.45,4.39,18.28C323.8,258.32,313.03,255.27,319.4,240.03z"/>
<path d="M323.8,258.32c0,0,7.68,0.55,10.19,7.95c0,0,0.92,2.92,5.95,3.36C339.93,269.62,320.5,271.88,323.8,258.32z"/>
<path d="M250.07,269.02c0,0,6.23,4.52,4.45,12.13c0,0-0.76,2.97,3.28,6C257.79,287.15,240.11,278.8,250.07,269.02z"/>
<circle class="st7" cx="405.03" cy="194.84" r="14.46"/>
<circle class="st7" cx="181.32" cy="388.6" r="10.9"/>
<circle class="st7" cx="416.79" cy="225.96" r="9.29"/>
<circle class="st7" cx="148.68" cy="301.02" r="9.29"/>
<circle class="st7" cx="153.77" cy="269.77" r="9.29"/>
<circle class="st7" cx="444.54" cy="278.77" r="4.64"/>
<circle class="st7" cx="170.42" cy="365.1" r="4.64"/>
<path class="st8" d="M327.94,293.48c0,0,5.72,0.95,14.61-5.08c0,0,2.57-2.27,2.74,0.93c0,0-0.9,42.71-23.4,37.45
	c0,0-19.21-3.12-23.08-5.79c0,0,5.33-0.92,10.82-2.09c11.33-2.4,19.46-12.77,18.43-24.3C328.03,294.23,327.99,293.85,327.94,293.48z
	"/>
<path class="st9" d="M293.04,222.9c0,0,8.72,14,0,29.99C293.04,252.89,314.65,237.12,293.04,222.9z"/>
<path class="st1" d="M269.57,216.93c0,0,10.35-10.98,26.42,0c0,0,11.97,9.35-8.04,5.69c0,0-5.89,7.39-9.84,0.19
	C278.11,222.81,262.52,225.22,269.57,216.93z"/>
</svg>
